<svg width="170" height="40" viewBox="0 0 170 40" fill="none" xmlns="http://www.w3.org/2000/svg">
<path d="M33.6236 30.1523V10.6142L16.8118 0.845215L8.3951 5.72973L25.2285 15.4987L16.8118 20.3833L0 10.6142V30.1523L16.8118 39.9213L25.2285 35.0368L8.3951 25.2678L16.8118 20.3833L33.6236 30.1523Z" fill="#52CCEB"/>
<path d="M59.1576 39.5588V21.314H63.3799V36.1183H81.5489V39.5588H59.1576Z" fill="#52CCEB"/>
<path d="M37.4524 39.5588L45.5844 21.314H49.7546L57.9127 39.5588H53.4818L46.8094 23.4512H48.4775L41.779 39.5588H37.4524ZM41.5184 35.6492L42.6391 32.4433H52.0222L53.169 35.6492H41.5184Z" fill="#52CCEB"/>
<path d="M71.5196 18.7912V3.98684H65.6813V0.546387H81.5803V3.98684H75.742V18.7912H71.5196Z" fill="#52CCEB"/>
<path d="M59.188 18.7912V0.546387H63.4104V18.7912H59.188Z" fill="#52CCEB"/>
<path d="M45.597 18.7912L37.7257 0.546387H42.2869L49.1678 16.7061H46.4832L53.4684 0.546387H57.6647L49.7673 18.7912H45.597Z" fill="#52CCEB"/>
<path d="M160.519 7.69165C159.923 7.69165 159.399 7.568 158.948 7.32069C158.497 7.06611 158.144 6.72061 157.89 6.28419C157.635 5.84049 157.508 5.33497 157.508 4.76762C157.508 4.20027 157.628 3.69838 157.868 3.26196C158.115 2.82553 158.45 2.48367 158.872 2.23636C159.301 1.98178 159.781 1.85449 160.312 1.85449C160.85 1.85449 161.326 1.97815 161.741 2.22545C162.163 2.46548 162.494 2.80735 162.734 3.25105C162.974 3.68747 163.094 4.19299 163.094 4.76762C163.094 4.80398 163.09 4.84399 163.083 4.88763C163.083 4.924 163.083 4.96401 163.083 5.00765H158.097V4.42939H162.668L162.363 4.65851C162.363 4.24391 162.272 3.87659 162.09 3.55654C161.916 3.22922 161.676 2.97464 161.37 2.7928C161.065 2.61096 160.712 2.52004 160.312 2.52004C159.919 2.52004 159.566 2.61096 159.253 2.7928C158.941 2.97464 158.697 3.22922 158.522 3.55654C158.348 3.88386 158.261 4.25846 158.261 4.68033V4.80035C158.261 5.23677 158.355 5.62228 158.544 5.95687C158.741 6.28418 159.01 6.5424 159.352 6.73152C159.701 6.91336 160.097 7.00428 160.541 7.00428C160.89 7.00428 161.214 6.94246 161.512 6.8188C161.817 6.69515 162.079 6.50603 162.297 6.25145L162.734 6.75334C162.479 7.05884 162.159 7.29159 161.774 7.45162C161.395 7.61164 160.977 7.69165 160.519 7.69165Z" fill="white"/>
<path d="M153.637 1.85449C154.102 1.85449 154.51 1.94541 154.859 2.12726C155.215 2.30183 155.492 2.57095 155.688 2.93464C155.892 3.29833 155.994 3.75657 155.994 4.30937V7.6371H155.219V4.38575C155.219 3.78203 155.066 3.32742 154.761 3.02192C154.462 2.70915 154.041 2.55277 153.495 2.55277C153.088 2.55277 152.731 2.63642 152.426 2.80371C152.128 2.96373 151.895 3.20013 151.728 3.5129C151.568 3.8184 151.488 4.18935 151.488 4.62578V7.6371H150.713V1.90905H151.455V3.48017L151.335 3.18558C151.517 2.77098 151.808 2.4473 152.208 2.21454C152.608 1.97451 153.084 1.85449 153.637 1.85449Z" fill="white"/>
<path d="M146.207 7.69165C145.655 7.69165 145.156 7.568 144.713 7.32069C144.276 7.06611 143.931 6.72061 143.676 6.28419C143.421 5.84049 143.294 5.33497 143.294 4.76762C143.294 4.19299 143.421 3.68747 143.676 3.25105C143.931 2.81462 144.276 2.47276 144.713 2.22545C145.149 1.97815 145.647 1.85449 146.207 1.85449C146.775 1.85449 147.277 1.97815 147.713 2.22545C148.157 2.47276 148.502 2.81462 148.749 3.25105C149.004 3.68747 149.131 4.19299 149.131 4.76762C149.131 5.33497 149.004 5.84049 148.749 6.28419C148.502 6.72061 148.157 7.06611 147.713 7.32069C147.269 7.568 146.767 7.69165 146.207 7.69165ZM146.207 7.00428C146.622 7.00428 146.989 6.91336 147.309 6.73152C147.629 6.5424 147.88 6.28055 148.062 5.94596C148.251 5.60409 148.346 5.21131 148.346 4.76762C148.346 4.31665 148.251 3.92386 148.062 3.58927C147.88 3.25468 147.629 2.99647 147.309 2.81462C146.989 2.62551 146.626 2.53095 146.218 2.53095C145.811 2.53095 145.447 2.62551 145.127 2.81462C144.807 2.99647 144.553 3.25468 144.363 3.58927C144.174 3.92386 144.08 4.31665 144.08 4.76762C144.08 5.21131 144.174 5.60409 144.363 5.94596C144.553 6.28055 144.807 6.5424 145.127 6.73152C145.447 6.91336 145.807 7.00428 146.207 7.00428Z" fill="white"/>
<path d="M139.632 7.6371V1.90905H140.374V3.46926L140.297 3.19649C140.457 2.76007 140.727 2.42912 141.105 2.20363C141.483 1.97087 141.952 1.85449 142.512 1.85449V2.60732C142.483 2.60732 142.454 2.60732 142.425 2.60732C142.396 2.60005 142.367 2.59641 142.338 2.59641C141.734 2.59641 141.261 2.78189 140.919 3.15285C140.577 3.51654 140.406 4.03661 140.406 4.71306V7.6371H139.632Z" fill="white"/>
<path d="M135.48 7.69165C134.884 7.69165 134.36 7.568 133.909 7.32069C133.458 7.06611 133.105 6.72061 132.851 6.28419C132.596 5.84049 132.469 5.33497 132.469 4.76762C132.469 4.20027 132.589 3.69838 132.829 3.26196C133.076 2.82553 133.411 2.48367 133.833 2.23636C134.262 1.98178 134.742 1.85449 135.273 1.85449C135.811 1.85449 136.288 1.97815 136.702 2.22545C137.124 2.46548 137.455 2.80735 137.695 3.25105C137.935 3.68747 138.055 4.19299 138.055 4.76762C138.055 4.80398 138.051 4.84399 138.044 4.88763C138.044 4.924 138.044 4.96401 138.044 5.00765H133.058V4.42939H137.63L137.324 4.65851C137.324 4.24391 137.233 3.87659 137.051 3.55654C136.877 3.22922 136.637 2.97464 136.331 2.7928C136.026 2.61096 135.673 2.52004 135.273 2.52004C134.88 2.52004 134.527 2.61096 134.215 2.7928C133.902 2.97464 133.658 3.22922 133.484 3.55654C133.309 3.88386 133.222 4.25846 133.222 4.68033V4.80035C133.222 5.23677 133.316 5.62228 133.505 5.95687C133.702 6.28418 133.971 6.5424 134.313 6.73152C134.662 6.91336 135.058 7.00428 135.502 7.00428C135.851 7.00428 136.175 6.94246 136.473 6.8188C136.779 6.69515 137.04 6.50603 137.259 6.25145L137.695 6.75334C137.44 7.05884 137.12 7.29159 136.735 7.45162C136.357 7.61164 135.938 7.69165 135.48 7.69165Z" fill="white"/>
<path d="M130.628 7.69178C130.09 7.69178 129.675 7.54631 129.384 7.25536C129.093 6.96441 128.948 6.55345 128.948 6.02247V0.643555H129.723V5.97883C129.723 6.31342 129.806 6.57163 129.974 6.75348C130.148 6.93532 130.395 7.02624 130.715 7.02624C131.057 7.02624 131.341 6.92804 131.566 6.73165L131.839 7.28809C131.687 7.42629 131.501 7.52813 131.283 7.59359C131.072 7.65905 130.854 7.69178 130.628 7.69178ZM127.922 2.55291V1.90918H131.468V2.55291H127.922Z" fill="white"/>
<path d="M125.028 7.69165C124.555 7.69165 124.108 7.62619 123.686 7.49526C123.264 7.35706 122.933 7.18613 122.693 6.98246L123.042 6.37147C123.275 6.54604 123.573 6.69879 123.937 6.82971C124.301 6.95337 124.683 7.01519 125.083 7.01519C125.628 7.01519 126.021 6.93155 126.261 6.76425C126.501 6.58968 126.621 6.36056 126.621 6.07688C126.621 5.86595 126.552 5.70229 126.414 5.58591C126.283 5.46226 126.108 5.37133 125.89 5.31314C125.672 5.24768 125.428 5.19313 125.159 5.14949C124.89 5.10584 124.621 5.05493 124.352 4.99674C124.09 4.93855 123.85 4.8549 123.632 4.74579C123.413 4.62941 123.235 4.47303 123.097 4.27664C122.966 4.08025 122.901 3.8184 122.901 3.49108C122.901 3.17831 122.988 2.89827 123.162 2.65096C123.337 2.40366 123.592 2.2109 123.926 2.0727C124.268 1.92723 124.683 1.85449 125.17 1.85449C125.541 1.85449 125.912 1.90541 126.283 2.00724C126.654 2.1018 126.959 2.22909 127.199 2.38911L126.861 3.01101C126.606 2.83644 126.334 2.71279 126.043 2.64005C125.752 2.56004 125.461 2.52004 125.17 2.52004C124.654 2.52004 124.272 2.61096 124.024 2.7928C123.784 2.96737 123.664 3.19286 123.664 3.46926C123.664 3.68747 123.73 3.8584 123.861 3.98205C123.999 4.10571 124.177 4.2039 124.395 4.27664C124.621 4.3421 124.864 4.39666 125.126 4.4403C125.395 4.48394 125.661 4.53849 125.923 4.60396C126.192 4.66215 126.436 4.74579 126.654 4.8549C126.879 4.95673 127.057 5.10584 127.188 5.30223C127.327 5.49135 127.396 5.74229 127.396 6.05506C127.396 6.38965 127.301 6.6806 127.112 6.92791C126.93 7.16794 126.661 7.35706 126.305 7.49526C125.955 7.62619 125.53 7.69165 125.028 7.69165Z" fill="white"/>
<path d="M118.984 7.69165C118.431 7.69165 117.933 7.568 117.489 7.32069C117.053 7.06611 116.707 6.72061 116.453 6.28419C116.198 5.84049 116.071 5.33497 116.071 4.76762C116.071 4.19299 116.198 3.68747 116.453 3.25105C116.707 2.81462 117.053 2.47276 117.489 2.22545C117.926 1.97815 118.424 1.85449 118.984 1.85449C119.551 1.85449 120.053 1.97815 120.49 2.22545C120.933 2.47276 121.279 2.81462 121.526 3.25105C121.781 3.68747 121.908 4.19299 121.908 4.76762C121.908 5.33497 121.781 5.84049 121.526 6.28419C121.279 6.72061 120.933 7.06611 120.49 7.32069C120.046 7.568 119.544 7.69165 118.984 7.69165ZM118.984 7.00428C119.399 7.00428 119.766 6.91336 120.086 6.73152C120.406 6.5424 120.657 6.28055 120.839 5.94596C121.028 5.60409 121.123 5.21131 121.123 4.76762C121.123 4.31665 121.028 3.92386 120.839 3.58927C120.657 3.25468 120.406 2.99647 120.086 2.81462C119.766 2.62551 119.402 2.53095 118.995 2.53095C118.588 2.53095 118.224 2.62551 117.904 2.81462C117.584 2.99647 117.329 3.25468 117.14 3.58927C116.951 3.92386 116.856 4.31665 116.856 4.76762C116.856 5.21131 116.951 5.60409 117.14 5.94596C117.329 6.28055 117.584 6.5424 117.904 6.73152C118.224 6.91336 118.584 7.00428 118.984 7.00428Z" fill="white"/>
<path d="M114.23 7.69178C113.692 7.69178 113.278 7.54631 112.987 7.25536C112.696 6.96441 112.55 6.55345 112.55 6.02247V0.643555H113.325V5.97883C113.325 6.31342 113.409 6.57163 113.576 6.75348C113.75 6.93532 113.998 7.02624 114.318 7.02624C114.66 7.02624 114.943 6.92804 115.169 6.73165L115.442 7.28809C115.289 7.42629 115.103 7.52813 114.885 7.59359C114.674 7.65905 114.456 7.69178 114.23 7.69178ZM111.525 2.55291V1.90918H115.071V2.55291H111.525Z" fill="white"/>
<path d="M108.63 7.69165C108.157 7.69165 107.71 7.62619 107.288 7.49526C106.866 7.35706 106.535 7.18613 106.295 6.98246L106.645 6.37147C106.877 6.54604 107.176 6.69879 107.539 6.82971C107.903 6.95337 108.285 7.01519 108.685 7.01519C109.23 7.01519 109.623 6.93155 109.863 6.76425C110.103 6.58968 110.223 6.36056 110.223 6.07688C110.223 5.86595 110.154 5.70229 110.016 5.58591C109.885 5.46226 109.71 5.37133 109.492 5.31314C109.274 5.24768 109.03 5.19313 108.761 5.14949C108.492 5.10584 108.223 5.05493 107.954 4.99674C107.692 4.93855 107.452 4.8549 107.234 4.74579C107.016 4.62941 106.837 4.47303 106.699 4.27664C106.568 4.08025 106.503 3.8184 106.503 3.49108C106.503 3.17831 106.59 2.89827 106.765 2.65096C106.939 2.40366 107.194 2.2109 107.528 2.0727C107.87 1.92723 108.285 1.85449 108.772 1.85449C109.143 1.85449 109.514 1.90541 109.885 2.00724C110.256 2.1018 110.561 2.22909 110.801 2.38911L110.463 3.01101C110.209 2.83644 109.936 2.71279 109.645 2.64005C109.354 2.56004 109.063 2.52004 108.772 2.52004C108.256 2.52004 107.874 2.61096 107.627 2.7928C107.386 2.96737 107.266 3.19286 107.266 3.46926C107.266 3.68747 107.332 3.8584 107.463 3.98205C107.601 4.10571 107.779 4.2039 107.997 4.27664C108.223 4.3421 108.467 4.39666 108.728 4.4403C108.998 4.48394 109.263 4.53849 109.525 4.60396C109.794 4.66215 110.038 4.74579 110.256 4.8549C110.481 4.95673 110.66 5.10584 110.791 5.30223C110.929 5.49135 110.998 5.74229 110.998 6.05506C110.998 6.38965 110.903 6.6806 110.714 6.92791C110.532 7.16794 110.263 7.35706 109.907 7.49526C109.558 7.62619 109.132 7.69165 108.63 7.69165Z" fill="white"/>
<path d="M102.94 7.69165C102.344 7.69165 101.82 7.568 101.369 7.32069C100.918 7.06611 100.565 6.72061 100.311 6.28419C100.056 5.84049 99.9288 5.33497 99.9288 4.76762C99.9288 4.20027 100.049 3.69838 100.289 3.26196C100.536 2.82553 100.871 2.48367 101.293 2.23636C101.722 1.98178 102.202 1.85449 102.733 1.85449C103.271 1.85449 103.748 1.97815 104.162 2.22545C104.584 2.46548 104.915 2.80735 105.155 3.25105C105.395 3.68747 105.515 4.19299 105.515 4.76762C105.515 4.80398 105.511 4.84399 105.504 4.88763C105.504 4.924 105.504 4.96401 105.504 5.00765H100.518V4.42939H105.09L104.784 4.65851C104.784 4.24391 104.693 3.87659 104.511 3.55654C104.337 3.22922 104.097 2.97464 103.791 2.7928C103.486 2.61096 103.133 2.52004 102.733 2.52004C102.34 2.52004 101.987 2.61096 101.675 2.7928C101.362 2.97464 101.118 3.22922 100.944 3.55654C100.769 3.88386 100.682 4.25846 100.682 4.68033V4.80035C100.682 5.23677 100.776 5.62228 100.965 5.95687C101.162 6.28418 101.431 6.5424 101.773 6.73152C102.122 6.91336 102.518 7.00428 102.962 7.00428C103.311 7.00428 103.635 6.94246 103.933 6.8188C104.239 6.69515 104.5 6.50603 104.719 6.25145L105.155 6.75334C104.9 7.05884 104.58 7.29159 104.195 7.45162C103.817 7.61164 103.398 7.69165 102.94 7.69165Z" fill="white"/>
<path d="M96.4862 7.6374V0.698277H93.8022V0H99.9776V0.698277H97.2936V7.6374H96.4862Z" fill="white"/>
<path d="M164.845 21.6156C164.307 21.6156 163.892 21.4701 163.601 21.1792C163.31 20.8882 163.165 20.4773 163.165 19.9463V14.5674H163.939V19.9027C163.939 20.2372 164.023 20.4955 164.19 20.6773C164.365 20.8591 164.612 20.9501 164.932 20.9501C165.274 20.9501 165.558 20.8519 165.783 20.6555L166.056 21.2119C165.903 21.3501 165.718 21.452 165.5 21.5174C165.289 21.5829 165.07 21.6156 164.845 21.6156ZM162.139 16.4767V15.833H165.685V16.4767H162.139Z" fill="white"/>
<path d="M158.585 15.7783C159.05 15.7783 159.457 15.8692 159.807 16.0511C160.163 16.2257 160.439 16.4948 160.636 16.8585C160.839 17.2222 160.941 17.6804 160.941 18.2332V21.5609H160.167V18.3096C160.167 17.7059 160.014 17.2512 159.708 16.9458C159.41 16.633 158.988 16.4766 158.443 16.4766C158.035 16.4766 157.679 16.5602 157.373 16.7275C157.075 16.8876 156.842 17.124 156.675 17.4367C156.515 17.7422 156.435 18.1132 156.435 18.5496V21.5609H155.661V15.8329H156.402V17.404L156.282 17.1094C156.464 16.6948 156.755 16.3711 157.155 16.1384C157.555 15.8983 158.032 15.7783 158.585 15.7783Z" fill="white"/>
<path d="M151.509 21.6155C150.912 21.6155 150.389 21.4918 149.938 21.2445C149.487 20.9899 149.134 20.6444 148.879 20.208C148.625 19.7643 148.498 19.2588 148.498 18.6914C148.498 18.1241 148.618 17.6222 148.858 17.1858C149.105 16.7494 149.44 16.4075 149.861 16.1602C150.291 15.9056 150.771 15.7783 151.302 15.7783C151.84 15.7783 152.316 15.902 152.731 16.1493C153.153 16.3893 153.484 16.7312 153.724 17.1749C153.964 17.6113 154.084 18.1168 154.084 18.6914C154.084 18.7278 154.08 18.7678 154.073 18.8115C154.073 18.8478 154.073 18.8878 154.073 18.9315H149.087V18.3532H153.658L153.353 18.5823C153.353 18.1677 153.262 17.8004 153.08 17.4804C152.905 17.1531 152.665 16.8985 152.36 16.7166C152.054 16.5348 151.702 16.4439 151.302 16.4439C150.909 16.4439 150.556 16.5348 150.243 16.7166C149.93 16.8985 149.687 17.1531 149.512 17.4804C149.338 17.8077 149.25 18.1823 149.25 18.6042V18.7242C149.25 19.1606 149.345 19.5461 149.534 19.8807C149.73 20.208 150 20.4662 150.341 20.6553C150.691 20.8372 151.087 20.9281 151.531 20.9281C151.88 20.9281 152.204 20.8663 152.502 20.7426C152.807 20.619 153.069 20.4299 153.287 20.1753L153.724 20.6772C153.469 20.9827 153.149 21.2154 152.764 21.3754C152.385 21.5355 151.967 21.6155 151.509 21.6155Z" fill="white"/>
<path d="M144.662 15.7783C145.127 15.7783 145.531 15.8692 145.873 16.0511C146.222 16.2257 146.491 16.4948 146.68 16.8585C146.877 17.2222 146.975 17.6804 146.975 18.2332V21.5609H146.2V18.3096C146.2 17.7059 146.055 17.2512 145.764 16.9458C145.48 16.633 145.077 16.4766 144.553 16.4766C144.16 16.4766 143.818 16.5602 143.527 16.7275C143.244 16.8876 143.022 17.124 142.862 17.4367C142.709 17.7422 142.633 18.1132 142.633 18.5496V21.5609H141.858V18.3096C141.858 17.7059 141.712 17.2512 141.422 16.9458C141.131 16.633 140.723 16.4766 140.2 16.4766C139.814 16.4766 139.476 16.5602 139.185 16.7275C138.894 16.8876 138.668 17.124 138.508 17.4367C138.356 17.7422 138.279 18.1132 138.279 18.5496V21.5609H137.505V15.8329H138.247V17.3822L138.127 17.1094C138.301 16.6948 138.581 16.3711 138.967 16.1384C139.359 15.8983 139.821 15.7783 140.352 15.7783C140.912 15.7783 141.389 15.9202 141.782 16.2038C142.174 16.4802 142.429 16.8985 142.545 17.4585L142.24 17.3385C142.407 16.873 142.702 16.4984 143.124 16.2147C143.553 15.9238 144.066 15.7783 144.662 15.7783Z" fill="white"/>
<path d="M133.353 21.6155C132.757 21.6155 132.233 21.4918 131.782 21.2445C131.331 20.9899 130.978 20.6444 130.724 20.208C130.469 19.7643 130.342 19.2588 130.342 18.6914C130.342 18.1241 130.462 17.6222 130.702 17.1858C130.949 16.7494 131.284 16.4075 131.705 16.1602C132.135 15.9056 132.615 15.7783 133.146 15.7783C133.684 15.7783 134.16 15.902 134.575 16.1493C134.997 16.3893 135.328 16.7312 135.568 17.1749C135.808 17.6113 135.928 18.1168 135.928 18.6914C135.928 18.7278 135.924 18.7678 135.917 18.8115C135.917 18.8478 135.917 18.8878 135.917 18.9315H130.931V18.3532H135.502L135.197 18.5823C135.197 18.1677 135.106 17.8004 134.924 17.4804C134.75 17.1531 134.51 16.8985 134.204 16.7166C133.899 16.5348 133.546 16.4439 133.146 16.4439C132.753 16.4439 132.4 16.5348 132.087 16.7166C131.775 16.8985 131.531 17.1531 131.356 17.4804C131.182 17.8077 131.095 18.1823 131.095 18.6042V18.7242C131.095 19.1606 131.189 19.5461 131.378 19.8807C131.575 20.208 131.844 20.4662 132.186 20.6553C132.535 20.8372 132.931 20.9281 133.375 20.9281C133.724 20.9281 134.048 20.8663 134.346 20.7426C134.651 20.619 134.913 20.4299 135.131 20.1753L135.568 20.6772C135.313 20.9827 134.993 21.2154 134.608 21.3754C134.229 21.5355 133.811 21.6155 133.353 21.6155Z" fill="white"/>
<path d="M127.246 21.6155C126.679 21.6155 126.17 21.4918 125.719 21.2445C125.275 20.9899 124.926 20.6444 124.672 20.208C124.417 19.7643 124.29 19.2588 124.29 18.6914C124.29 18.1168 124.417 17.6113 124.672 17.1749C124.926 16.7385 125.275 16.3966 125.719 16.1493C126.17 15.902 126.679 15.7783 127.246 15.7783C127.734 15.7783 128.174 15.8729 128.567 16.062C128.959 16.2511 129.269 16.5348 129.494 16.913L128.916 17.3058C128.719 17.0149 128.476 16.8003 128.185 16.6621C127.894 16.5239 127.577 16.4548 127.236 16.4548C126.828 16.4548 126.461 16.5493 126.134 16.7385C125.806 16.9203 125.548 17.1785 125.359 17.5131C125.17 17.8477 125.075 18.2405 125.075 18.6914C125.075 19.1424 125.17 19.5352 125.359 19.8698C125.548 20.2044 125.806 20.4662 126.134 20.6553C126.461 20.8372 126.828 20.9281 127.236 20.9281C127.577 20.9281 127.894 20.859 128.185 20.7208C128.476 20.5826 128.719 20.3717 128.916 20.088L129.494 20.4808C129.269 20.8517 128.959 21.1354 128.567 21.3318C128.174 21.5209 127.734 21.6155 127.246 21.6155Z" fill="white"/>
<path d="M122.022 21.5609V20.2953L121.989 20.088V17.9713C121.989 17.484 121.851 17.1094 121.575 16.8476C121.306 16.5857 120.902 16.4548 120.364 16.4548C119.993 16.4548 119.64 16.5166 119.305 16.6403C118.971 16.7639 118.687 16.9276 118.454 17.1312L118.105 16.553C118.396 16.3057 118.745 16.1165 119.153 15.9856C119.56 15.8474 119.989 15.7783 120.44 15.7783C121.182 15.7783 121.753 15.9638 122.153 16.3348C122.56 16.6984 122.764 17.2549 122.764 18.0041V21.5609H122.022ZM120.047 21.6155C119.618 21.6155 119.243 21.5464 118.923 21.4082C118.611 21.2627 118.371 21.0663 118.203 20.819C118.036 20.5644 117.952 20.2735 117.952 19.9462C117.952 19.6479 118.021 19.3788 118.16 19.1388C118.305 18.8915 118.538 18.6951 118.858 18.5496C119.185 18.3969 119.622 18.3205 120.167 18.3205H122.142V18.8987H120.189C119.636 18.8987 119.251 18.9969 119.033 19.1933C118.822 19.3897 118.716 19.6334 118.716 19.9243C118.716 20.2517 118.843 20.5135 119.098 20.7099C119.353 20.9063 119.709 21.0045 120.167 21.0045C120.604 21.0045 120.978 20.9063 121.291 20.7099C121.611 20.5062 121.844 20.2153 121.989 19.8371L122.164 20.3717C122.018 20.7499 121.764 21.0518 121.4 21.2772C121.044 21.5027 120.593 21.6155 120.047 21.6155Z" fill="white"/>
<path d="M115.502 21.561V13.4653H116.277V21.561H115.502Z" fill="white"/>
<path d="M111.065 21.6155C110.57 21.6155 110.123 21.5027 109.723 21.2772C109.323 21.0445 109.003 20.7135 108.763 20.2844C108.53 19.848 108.413 19.317 108.413 18.6914C108.413 18.0659 108.53 17.5386 108.763 17.1094C108.995 16.673 109.312 16.342 109.712 16.1165C110.112 15.8911 110.563 15.7783 111.065 15.7783C111.61 15.7783 112.098 15.902 112.527 16.1493C112.963 16.3893 113.305 16.7312 113.552 17.1749C113.8 17.6113 113.923 18.1168 113.923 18.6914C113.923 19.2733 113.8 19.7825 113.552 20.2189C113.305 20.6553 112.963 20.9972 112.527 21.2445C112.098 21.4918 111.61 21.6155 111.065 21.6155ZM108.108 23.6776V15.8329H108.85V17.5567L108.773 18.7024L108.883 19.8589V23.6776H108.108ZM111.01 20.9281C111.417 20.9281 111.781 20.8372 112.101 20.6553C112.421 20.4662 112.676 20.2044 112.865 19.8698C113.054 19.5279 113.149 19.1351 113.149 18.6914C113.149 18.2477 113.054 17.8586 112.865 17.524C112.676 17.1894 112.421 16.9276 112.101 16.7385C111.781 16.5493 111.417 16.4548 111.01 16.4548C110.603 16.4548 110.235 16.5493 109.908 16.7385C109.588 16.9276 109.334 17.1894 109.144 17.524C108.963 17.8586 108.872 18.2477 108.872 18.6914C108.872 19.1351 108.963 19.5279 109.144 19.8698C109.334 20.2044 109.588 20.4662 109.908 20.6553C110.235 20.8372 110.603 20.9281 111.01 20.9281Z" fill="white"/>
<path d="M103.956 21.6155C103.36 21.6155 102.836 21.4918 102.385 21.2445C101.934 20.9899 101.581 20.6444 101.327 20.208C101.072 19.7643 100.945 19.2588 100.945 18.6914C100.945 18.1241 101.065 17.6222 101.305 17.1858C101.552 16.7494 101.887 16.4075 102.309 16.1602C102.738 15.9056 103.218 15.7783 103.749 15.7783C104.287 15.7783 104.764 15.902 105.178 16.1493C105.6 16.3893 105.931 16.7312 106.171 17.1749C106.411 17.6113 106.531 18.1168 106.531 18.6914C106.531 18.7278 106.528 18.7678 106.52 18.8115C106.52 18.8478 106.52 18.8878 106.52 18.9315H101.534V18.3532H106.106L105.8 18.5823C105.8 18.1677 105.709 17.8004 105.527 17.4804C105.353 17.1531 105.113 16.8985 104.807 16.7166C104.502 16.5348 104.149 16.4439 103.749 16.4439C103.356 16.4439 103.003 16.5348 102.691 16.7166C102.378 16.8985 102.134 17.1531 101.96 17.4804C101.785 17.8077 101.698 18.1823 101.698 18.6042V18.7242C101.698 19.1606 101.792 19.5461 101.981 19.8807C102.178 20.208 102.447 20.4662 102.789 20.6553C103.138 20.8372 103.534 20.9281 103.978 20.9281C104.327 20.9281 104.651 20.8663 104.949 20.7426C105.255 20.619 105.516 20.4299 105.735 20.1753L106.171 20.6772C105.917 20.9827 105.596 21.2154 105.211 21.3754C104.833 21.5355 104.415 21.6155 103.956 21.6155Z" fill="white"/>
<path d="M93.8022 21.5607V13.9233H96.6608C97.3082 13.9233 97.8646 14.0288 98.3301 14.2397C98.7957 14.4434 99.1521 14.7416 99.3994 15.1344C99.654 15.5199 99.7812 15.9891 99.7812 16.5419C99.7812 17.0801 99.654 17.5457 99.3994 17.9384C99.1521 18.3239 98.7957 18.6222 98.3301 18.8331C97.8646 19.0368 97.3082 19.1386 96.6608 19.1386H94.2496L94.6096 18.7676V21.5607H93.8022ZM99.0175 21.5607L97.0536 18.7895H97.9264L99.9013 21.5607H99.0175ZM94.6096 18.8331L94.2496 18.4512H96.639C97.4027 18.4512 97.981 18.2839 98.3738 17.9493C98.7738 17.6148 98.9739 17.1456 98.9739 16.5419C98.9739 15.9309 98.7738 15.4581 98.3738 15.1235C97.981 14.7889 97.4027 14.6216 96.639 14.6216H94.2496L94.6096 14.2397V18.8331Z" fill="white"/>
<path d="M167.752 37.6013C167.185 37.6013 166.676 37.4777 166.225 37.2304C165.781 36.9758 165.432 36.6303 165.178 36.1939C164.923 35.7502 164.796 35.2446 164.796 34.6773C164.796 34.1027 164.923 33.5971 165.178 33.1607C165.432 32.7243 165.781 32.3824 166.225 32.1351C166.676 31.8878 167.185 31.7642 167.752 31.7642C168.24 31.7642 168.68 31.8587 169.073 32.0478C169.465 32.237 169.775 32.5206 170 32.8989L169.422 33.2916C169.225 33.0007 168.982 32.7861 168.691 32.6479C168.4 32.5097 168.083 32.4406 167.742 32.4406C167.334 32.4406 166.967 32.5352 166.64 32.7243C166.312 32.9061 166.054 33.1644 165.865 33.4989C165.676 33.8335 165.581 34.2263 165.581 34.6773C165.581 35.1283 165.676 35.521 165.865 35.8556C166.054 36.1902 166.312 36.4521 166.64 36.6412C166.967 36.823 167.334 36.914 167.742 36.914C168.083 36.914 168.4 36.8449 168.691 36.7067C168.982 36.5684 169.225 36.3575 169.422 36.0738L170 36.4666C169.775 36.8376 169.465 37.1213 169.073 37.3176C168.68 37.5068 168.24 37.6013 167.752 37.6013Z" fill="white"/>
<path d="M162.444 37.5468V31.8188H163.219V37.5468H162.444ZM162.837 30.5531C162.677 30.5531 162.542 30.4986 162.433 30.3895C162.324 30.2804 162.269 30.1494 162.269 29.9967C162.269 29.844 162.324 29.7167 162.433 29.6148C162.542 29.5057 162.677 29.4512 162.837 29.4512C162.997 29.4512 163.131 29.5021 163.24 29.6039C163.349 29.7058 163.404 29.833 163.404 29.9858C163.404 30.1458 163.349 30.2804 163.24 30.3895C163.138 30.4986 163.004 30.5531 162.837 30.5531Z" fill="white"/>
<path d="M157.995 31.7642C158.46 31.7642 158.868 31.8551 159.217 32.0369C159.573 32.2115 159.85 32.4806 160.046 32.8443C160.25 33.208 160.351 33.6662 160.351 34.219V37.5468H159.577V34.2954C159.577 33.6917 159.424 33.2371 159.118 32.9316C158.82 32.6188 158.398 32.4624 157.853 32.4624C157.446 32.4624 157.089 32.5461 156.784 32.7134C156.485 32.8734 156.253 33.1098 156.085 33.4226C155.925 33.7281 155.845 34.099 155.845 34.5354V37.5468H155.071V31.8187H155.813V33.3898L155.693 33.0953C155.874 32.6806 156.165 32.357 156.565 32.1242C156.965 31.8842 157.442 31.7642 157.995 31.7642Z" fill="white"/>
<path d="M152.141 37.5468V31.8188H152.915V37.5468H152.141ZM152.533 30.5531C152.373 30.5531 152.239 30.4986 152.13 30.3895C152.021 30.2804 151.966 30.1494 151.966 29.9967C151.966 29.844 152.021 29.7167 152.13 29.6148C152.239 29.5057 152.373 29.4512 152.533 29.4512C152.693 29.4512 152.828 29.5021 152.937 29.6039C153.046 29.7058 153.101 29.833 153.101 29.9858C153.101 30.1458 153.046 30.2804 152.937 30.3895C152.835 30.4986 152.701 30.5531 152.533 30.5531Z" fill="white"/>
<path d="M149.21 37.5468V29.4512H149.985V37.5468H149.21Z" fill="white"/>
<path d="M144.849 37.6121C144.274 37.6121 143.743 37.5175 143.256 37.3284C142.769 37.132 142.347 36.8592 141.99 36.5101C141.634 36.161 141.354 35.75 141.15 35.2772C140.954 34.8044 140.856 34.288 140.856 33.7279C140.856 33.1678 140.954 32.6514 141.15 32.1786C141.354 31.7058 141.634 31.2949 141.99 30.9457C142.354 30.5966 142.78 30.3275 143.267 30.1383C143.754 29.9419 144.285 29.8438 144.86 29.8438C145.413 29.8438 145.933 29.9383 146.42 30.1274C146.907 30.3093 147.318 30.5857 147.653 30.9566L147.14 31.4694C146.827 31.1494 146.482 30.9203 146.104 30.7821C145.725 30.6366 145.318 30.5638 144.882 30.5638C144.423 30.5638 143.998 30.6439 143.605 30.8039C143.212 30.9566 142.871 31.1785 142.58 31.4694C142.289 31.7531 142.06 32.0877 141.892 32.4732C141.732 32.8514 141.652 33.2697 141.652 33.7279C141.652 34.1862 141.732 34.608 141.892 34.9935C142.06 35.3718 142.289 35.7064 142.58 35.9973C142.871 36.281 143.212 36.5028 143.605 36.6629C143.998 36.8156 144.423 36.892 144.882 36.892C145.318 36.892 145.725 36.8192 146.104 36.6738C146.482 36.5283 146.827 36.2955 147.14 35.9755L147.653 36.4883C147.318 36.8592 146.907 37.1393 146.42 37.3284C145.933 37.5175 145.409 37.6121 144.849 37.6121Z" fill="white"/>
<path d="M132.643 39.7181C132.374 39.7181 132.116 39.6745 131.869 39.5872C131.629 39.4999 131.421 39.369 131.247 39.1944L131.607 38.6161C131.752 38.7543 131.909 38.8598 132.076 38.9325C132.25 39.0126 132.443 39.0526 132.654 39.0526C132.909 39.0526 133.127 38.9798 133.309 38.8343C133.498 38.6961 133.676 38.4488 133.843 38.0924L134.214 37.2523L134.302 37.1323L136.658 31.8188H137.422L134.553 38.2343C134.393 38.6052 134.214 38.8998 134.018 39.118C133.829 39.3362 133.622 39.489 133.396 39.5763C133.171 39.6708 132.92 39.7181 132.643 39.7181ZM134.171 37.7106L131.53 31.8188H132.338L134.673 37.0777L134.171 37.7106Z" fill="white"/>
<path d="M128.322 37.6013C127.827 37.6013 127.38 37.4886 126.98 37.2631C126.58 37.0303 126.26 36.6994 126.02 36.2702C125.787 35.8338 125.67 35.3028 125.67 34.6773C125.67 34.0517 125.787 33.5244 126.02 33.0953C126.252 32.6588 126.569 32.3279 126.969 32.1024C127.369 31.8769 127.82 31.7642 128.322 31.7642C128.867 31.7642 129.354 31.8878 129.784 32.1351C130.22 32.3752 130.562 32.717 130.809 33.1607C131.057 33.5971 131.18 34.1027 131.18 34.6773C131.18 35.2592 131.057 35.7683 130.809 36.2048C130.562 36.6412 130.22 36.9831 129.784 37.2304C129.354 37.4777 128.867 37.6013 128.322 37.6013ZM125.365 39.6634V31.8187H126.107V33.5426L126.03 34.6882L126.14 35.8447V39.6634H125.365ZM128.267 36.914C128.674 36.914 129.038 36.823 129.358 36.6412C129.678 36.4521 129.933 36.1902 130.122 35.8556C130.311 35.5138 130.406 35.121 130.406 34.6773C130.406 34.2336 130.311 33.8444 130.122 33.5099C129.933 33.1753 129.678 32.9134 129.358 32.7243C129.038 32.5352 128.674 32.4406 128.267 32.4406C127.86 32.4406 127.492 32.5352 127.165 32.7243C126.845 32.9134 126.59 33.1753 126.401 33.5099C126.22 33.8444 126.129 34.2336 126.129 34.6773C126.129 35.121 126.22 35.5138 126.401 35.8556C126.59 36.1902 126.845 36.4521 127.165 36.6412C127.492 36.823 127.86 36.914 128.267 36.914Z" fill="white"/>
<path d="M122.519 37.5468V36.2811L122.486 36.0738V33.9572C122.486 33.4698 122.348 33.0953 122.072 32.8334C121.803 32.5715 121.399 32.4406 120.861 32.4406C120.49 32.4406 120.137 32.5024 119.802 32.6261C119.468 32.7497 119.184 32.9134 118.951 33.1171L118.602 32.5388C118.893 32.2915 119.242 32.1024 119.65 31.9715C120.057 31.8333 120.486 31.7642 120.937 31.7642C121.679 31.7642 122.25 31.9496 122.65 32.3206C123.057 32.6843 123.261 33.2407 123.261 33.9899V37.5468H122.519ZM120.544 37.6013C120.115 37.6013 119.74 37.5322 119.42 37.394C119.108 37.2485 118.868 37.0522 118.7 36.8048C118.533 36.5503 118.449 36.2593 118.449 35.932C118.449 35.6338 118.518 35.3646 118.657 35.1246C118.802 34.8773 119.035 34.6809 119.355 34.5354C119.682 34.3827 120.119 34.3063 120.664 34.3063H122.639V34.8846H120.686C120.133 34.8846 119.748 34.9828 119.529 35.1792C119.319 35.3756 119.213 35.6192 119.213 35.9102C119.213 36.2375 119.34 36.4993 119.595 36.6957C119.85 36.8921 120.206 36.9903 120.664 36.9903C121.101 36.9903 121.475 36.8921 121.788 36.6957C122.108 36.4921 122.341 36.2011 122.486 35.8229L122.661 36.3575C122.515 36.7357 122.261 37.0376 121.897 37.2631C121.541 37.4886 121.09 37.6013 120.544 37.6013Z" fill="white"/>
<path d="M115.062 37.5468V31.8187H115.804V33.3789L115.727 33.1062C115.887 32.6697 116.156 32.3388 116.535 32.1133C116.913 31.8805 117.382 31.7642 117.942 31.7642V32.517C117.913 32.517 117.884 32.517 117.855 32.517C117.826 32.5097 117.797 32.5061 117.767 32.5061C117.164 32.5061 116.691 32.6916 116.349 33.0625C116.007 33.4262 115.836 33.9463 115.836 34.6227V37.5468H115.062Z" fill="white"/>
<path d="M110.91 37.6013C110.314 37.6013 109.79 37.4777 109.339 37.2304C108.888 36.9758 108.535 36.6303 108.281 36.1939C108.026 35.7502 107.899 35.2446 107.899 34.6773C107.899 34.1099 108.019 33.608 108.259 33.1716C108.506 32.7352 108.841 32.3933 109.263 32.146C109.692 31.8915 110.172 31.7642 110.703 31.7642C111.241 31.7642 111.717 31.8878 112.132 32.1351C112.554 32.3752 112.885 32.717 113.125 33.1607C113.365 33.5971 113.485 34.1027 113.485 34.6773C113.485 34.7137 113.481 34.7537 113.474 34.7973C113.474 34.8337 113.474 34.8737 113.474 34.9173H108.488V34.3391H113.059L112.754 34.5682C112.754 34.1536 112.663 33.7863 112.481 33.4662C112.307 33.1389 112.067 32.8843 111.761 32.7025C111.456 32.5206 111.103 32.4297 110.703 32.4297C110.31 32.4297 109.957 32.5206 109.644 32.7025C109.332 32.8843 109.088 33.1389 108.913 33.4662C108.739 33.7935 108.652 34.1681 108.652 34.59V34.71C108.652 35.1464 108.746 35.5319 108.935 35.8665C109.132 36.1939 109.401 36.4521 109.743 36.6412C110.092 36.823 110.488 36.914 110.932 36.914C111.281 36.914 111.605 36.8521 111.903 36.7285C112.208 36.6048 112.47 36.4157 112.688 36.1611L113.125 36.663C112.87 36.9685 112.55 37.2013 112.165 37.3613C111.786 37.5213 111.368 37.6013 110.91 37.6013Z" fill="white"/>
<path d="M104.028 31.7642C104.493 31.7642 104.901 31.8551 105.25 32.037C105.606 32.2115 105.883 32.4807 106.079 32.8444C106.283 33.208 106.385 33.6663 106.385 34.2191V37.5468H105.61V34.2955C105.61 33.6917 105.457 33.2371 105.152 32.9316C104.853 32.6189 104.432 32.4625 103.886 32.4625C103.479 32.4625 103.122 32.5461 102.817 32.7134C102.519 32.8735 102.286 33.1099 102.119 33.4226C101.959 33.7281 101.879 34.0991 101.879 34.5355V37.5468H101.104V29.4512H101.879V33.3899L101.726 33.0953C101.908 32.6807 102.199 32.357 102.599 32.1243C102.999 31.8842 103.475 31.7642 104.028 31.7642Z" fill="white"/>
<path d="M96.4862 37.5466V30.6075H93.8022V29.9092H99.9776V30.6075H97.2936V37.5466H96.4862Z" fill="white"/>
<path d="M88.3093 0V39.7181" stroke="white" stroke-width="0.845065"/>
</svg>
