<svg width="202" height="51" viewBox="0 0 202 51" fill="none" xmlns="http://www.w3.org/2000/svg">
<path d="M39.7882 38.6802V15.5601L19.8941 4L9.93426 9.78004L29.8539 21.3401L19.8941 27.1202L0 15.5601V38.6802L19.8941 50.2403L29.8539 44.4603L9.93426 32.9002L19.8941 27.1202L39.7882 38.6802Z" fill="#52CCEB"/>
<path d="M70.0035 49.8118V28.2219H75V45.7405H96.5V49.8118H70.0035Z" fill="#52CCEB"/>
<path d="M44.319 49.8118L53.9419 28.2219H58.8767L68.5304 49.8118H63.2872L55.3915 30.751H57.3654L49.4388 49.8118H44.319ZM49.1304 45.1854L50.4567 41.3917H61.56L62.9171 45.1854H49.1304Z" fill="#52CCEB"/>
<path d="M84.632 25.2366V7.71796H77.7233V3.64673H96.5373V7.71796H89.6285V25.2366H84.632Z" fill="#52CCEB"/>
<path d="M70.0396 25.2366V3.64673H75.0361V25.2366H70.0396Z" fill="#52CCEB"/>
<path d="M53.9568 25.2366L44.6423 3.64673H50.0398L58.1822 22.7692H55.0055L63.2713 3.64673H68.2369L58.8916 25.2366H53.9568Z" fill="#52CCEB"/>
<path d="M114.228 13V4.78865H111.052V3.96236H118.359V4.78865H115.183V13H114.228ZM121.865 13.0646C121.159 13.0646 120.539 12.9182 120.006 12.6256C119.472 12.3243 119.055 11.9155 118.753 11.399C118.452 10.874 118.302 10.2758 118.302 9.60443C118.302 8.93306 118.444 8.33916 118.728 7.82272C119.02 7.30628 119.416 6.90174 119.915 6.60909C120.423 6.30784 120.991 6.15721 121.62 6.15721C122.257 6.15721 122.82 6.30354 123.311 6.59618C123.81 6.88022 124.202 7.28477 124.486 7.80981C124.77 8.32625 124.912 8.92445 124.912 9.60443C124.912 9.64746 124.908 9.6948 124.899 9.74645C124.899 9.78948 124.899 9.83682 124.899 9.88847H118.999V9.20419H124.408L124.047 9.47532C124.047 8.9847 123.939 8.55004 123.724 8.17132C123.518 7.78399 123.234 7.48273 122.872 7.26755C122.51 7.05237 122.093 6.94478 121.62 6.94478C121.155 6.94478 120.737 7.05237 120.367 7.26755C119.997 7.48273 119.709 7.78399 119.502 8.17132C119.296 8.55864 119.192 9.00192 119.192 9.50114V9.64316C119.192 10.1596 119.304 10.6158 119.528 11.0117C119.76 11.399 120.079 11.7046 120.483 11.9284C120.897 12.1436 121.366 12.2512 121.891 12.2512C122.304 12.2512 122.687 12.178 123.04 12.0317C123.401 11.8854 123.711 11.6616 123.969 11.3603L124.486 11.9542C124.185 12.3157 123.806 12.5912 123.35 12.7805C122.902 12.9699 122.407 13.0646 121.865 13.0646ZM128.598 13.0646C128.039 13.0646 127.509 12.9871 127.01 12.8322C126.511 12.6686 126.119 12.4663 125.835 12.2253L126.248 11.5023C126.524 11.7089 126.877 11.8897 127.307 12.0446C127.737 12.1909 128.189 12.2641 128.663 12.2641C129.308 12.2641 129.773 12.1651 130.057 11.9671C130.341 11.7606 130.483 11.4894 130.483 11.1537C130.483 10.9041 130.401 10.7105 130.238 10.5727C130.083 10.4264 129.876 10.3188 129.618 10.25C129.36 10.1725 129.072 10.108 128.753 10.0563C128.435 10.0047 128.116 9.94442 127.798 9.87556C127.488 9.8067 127.204 9.70772 126.946 9.57861C126.687 9.44089 126.476 9.25583 126.313 9.02344C126.158 8.79104 126.081 8.48118 126.081 8.09385C126.081 7.72374 126.184 7.39236 126.39 7.09971C126.597 6.80706 126.898 6.57897 127.294 6.41543C127.699 6.24328 128.189 6.15721 128.766 6.15721C129.205 6.15721 129.644 6.21746 130.083 6.33796C130.522 6.44986 130.883 6.60049 131.167 6.78985L130.767 7.52577C130.466 7.31919 130.143 7.17287 129.799 7.0868C129.455 6.99212 129.11 6.94478 128.766 6.94478C128.155 6.94478 127.703 7.05237 127.41 7.26755C127.126 7.47413 126.984 7.74095 126.984 8.06803C126.984 8.32625 127.062 8.52852 127.217 8.67484C127.38 8.82117 127.591 8.93736 127.849 9.02344C128.116 9.1009 128.405 9.16546 128.714 9.2171C129.033 9.26874 129.347 9.3333 129.657 9.41076C129.975 9.47962 130.264 9.57861 130.522 9.70772C130.789 9.82822 131 10.0047 131.155 10.2371C131.318 10.4609 131.4 10.7578 131.4 11.1279C131.4 11.5239 131.288 11.8681 131.064 12.1608C130.849 12.4448 130.531 12.6686 130.109 12.8322C129.696 12.9871 129.192 13.0646 128.598 13.0646ZM135.225 13.0646C134.588 13.0646 134.098 12.8924 133.753 12.5481C133.409 12.2038 133.237 11.7175 133.237 11.0892V4.7241H134.154V11.0375C134.154 11.4335 134.252 11.739 134.45 11.9542C134.657 12.1694 134.95 12.277 135.328 12.277C135.733 12.277 136.069 12.1608 136.335 11.9284L136.658 12.5869C136.477 12.7504 136.258 12.8709 136 12.9484C135.75 13.0258 135.492 13.0646 135.225 13.0646ZM132.023 6.98351V6.22177H136.219V6.98351H132.023ZM140.85 13.0646C140.196 13.0646 139.607 12.9182 139.082 12.6256C138.565 12.3243 138.156 11.9155 137.855 11.399C137.554 10.874 137.403 10.2758 137.403 9.60443C137.403 8.92445 137.554 8.32625 137.855 7.80981C138.156 7.29337 138.565 6.88883 139.082 6.59618C139.598 6.30354 140.188 6.15721 140.85 6.15721C141.522 6.15721 142.116 6.30354 142.632 6.59618C143.157 6.88883 143.566 7.29337 143.859 7.80981C144.16 8.32625 144.31 8.92445 144.31 9.60443C144.31 10.2758 144.16 10.874 143.859 11.399C143.566 11.9155 143.157 12.3243 142.632 12.6256C142.107 12.9182 141.513 13.0646 140.85 13.0646ZM140.85 12.2512C141.341 12.2512 141.776 12.1436 142.154 11.9284C142.533 11.7046 142.83 11.3947 143.045 10.9988C143.269 10.5943 143.381 10.1295 143.381 9.60443C143.381 9.07078 143.269 8.60598 143.045 8.21005C142.83 7.81411 142.533 7.50855 142.154 7.29337C141.776 7.06958 141.345 6.95769 140.863 6.95769C140.381 6.95769 139.951 7.06958 139.572 7.29337C139.193 7.50855 138.892 7.81411 138.668 8.21005C138.445 8.60598 138.333 9.07078 138.333 9.60443C138.333 10.1295 138.445 10.5943 138.668 10.9988C138.892 11.3947 139.193 11.7046 139.572 11.9284C139.951 12.1436 140.377 12.2512 140.85 12.2512ZM148.002 13.0646C147.443 13.0646 146.914 12.9871 146.414 12.8322C145.915 12.6686 145.523 12.4663 145.239 12.2253L145.653 11.5023C145.928 11.7089 146.281 11.8897 146.711 12.0446C147.142 12.1909 147.594 12.2641 148.067 12.2641C148.712 12.2641 149.177 12.1651 149.461 11.9671C149.745 11.7606 149.887 11.4894 149.887 11.1537C149.887 10.9041 149.806 10.7105 149.642 10.5727C149.487 10.4264 149.281 10.3188 149.022 10.25C148.764 10.1725 148.476 10.108 148.157 10.0563C147.839 10.0047 147.52 9.94442 147.202 9.87556C146.892 9.8067 146.608 9.70772 146.35 9.57861C146.092 9.44089 145.881 9.25583 145.717 9.02344C145.562 8.79104 145.485 8.48118 145.485 8.09385C145.485 7.72374 145.588 7.39236 145.795 7.09971C146.001 6.80706 146.302 6.57897 146.698 6.41543C147.103 6.24328 147.594 6.15721 148.17 6.15721C148.609 6.15721 149.048 6.21746 149.487 6.33796C149.926 6.44986 150.288 6.60049 150.572 6.78985L150.171 7.52577C149.87 7.31919 149.547 7.17287 149.203 7.0868C148.859 6.99212 148.515 6.94478 148.17 6.94478C147.559 6.94478 147.107 7.05237 146.815 7.26755C146.531 7.47413 146.389 7.74095 146.389 8.06803C146.389 8.32625 146.466 8.52852 146.621 8.67484C146.784 8.82117 146.995 8.93736 147.254 9.02344C147.52 9.1009 147.809 9.16546 148.119 9.2171C148.437 9.26874 148.751 9.3333 149.061 9.41076C149.38 9.47962 149.668 9.57861 149.926 9.70772C150.193 9.82822 150.404 10.0047 150.559 10.2371C150.722 10.4609 150.804 10.7578 150.804 11.1279C150.804 11.5239 150.692 11.8681 150.468 12.1608C150.253 12.4448 149.935 12.6686 149.513 12.8322C149.1 12.9871 148.596 13.0646 148.002 13.0646ZM154.629 13.0646C153.992 13.0646 153.502 12.8924 153.157 12.5481C152.813 12.2038 152.641 11.7175 152.641 11.0892V4.7241H153.558V11.0375C153.558 11.4335 153.657 11.739 153.855 11.9542C154.061 12.1694 154.354 12.277 154.733 12.277C155.137 12.277 155.473 12.1608 155.74 11.9284L156.062 12.5869C155.882 12.7504 155.662 12.8709 155.404 12.9484C155.154 13.0258 154.896 13.0646 154.629 13.0646ZM151.427 6.98351V6.22177H155.623V6.98351H151.427ZM160.371 13.0646C159.665 13.0646 159.045 12.9182 158.512 12.6256C157.978 12.3243 157.56 11.9155 157.259 11.399C156.958 10.874 156.807 10.2758 156.807 9.60443C156.807 8.93306 156.949 8.33916 157.233 7.82272C157.526 7.30628 157.922 6.90174 158.421 6.60909C158.929 6.30784 159.497 6.15721 160.125 6.15721C160.762 6.15721 161.326 6.30354 161.817 6.59618C162.316 6.88022 162.708 7.28477 162.992 7.80981C163.276 8.32625 163.418 8.92445 163.418 9.60443C163.418 9.64746 163.413 9.6948 163.405 9.74645C163.405 9.78948 163.405 9.83682 163.405 9.88847H157.505V9.20419H162.914L162.553 9.47532C162.553 8.9847 162.445 8.55004 162.23 8.17132C162.023 7.78399 161.739 7.48273 161.378 7.26755C161.016 7.05237 160.599 6.94478 160.125 6.94478C159.661 6.94478 159.243 7.05237 158.873 7.26755C158.503 7.48273 158.215 7.78399 158.008 8.17132C157.801 8.55864 157.698 9.00192 157.698 9.50114V9.64316C157.698 10.1596 157.81 10.6158 158.034 11.0117C158.266 11.399 158.585 11.7046 158.989 11.9284C159.402 12.1436 159.872 12.2512 160.397 12.2512C160.81 12.2512 161.193 12.178 161.546 12.0317C161.907 11.8854 162.217 11.6616 162.475 11.3603L162.992 11.9542C162.69 12.3157 162.312 12.5912 161.856 12.7805C161.408 12.9699 160.913 13.0646 160.371 13.0646ZM165.284 13V6.22177H166.162V8.06803L166.071 7.74526C166.26 7.22882 166.579 6.83719 167.027 6.57036C167.474 6.29493 168.029 6.15721 168.692 6.15721V7.04807C168.658 7.04807 168.623 7.04807 168.589 7.04807C168.554 7.03946 168.52 7.03515 168.485 7.03515C167.771 7.03515 167.212 7.25464 166.807 7.69361C166.403 8.12398 166.2 8.7394 166.2 9.53987V13H165.284ZM173.065 13.0646C172.41 13.0646 171.821 12.9182 171.296 12.6256C170.779 12.3243 170.371 11.9155 170.069 11.399C169.768 10.874 169.617 10.2758 169.617 9.60443C169.617 8.92445 169.768 8.32625 170.069 7.80981C170.371 7.29337 170.779 6.88883 171.296 6.59618C171.812 6.30354 172.402 6.15721 173.065 6.15721C173.736 6.15721 174.33 6.30354 174.846 6.59618C175.371 6.88883 175.78 7.29337 176.073 7.80981C176.374 8.32625 176.525 8.92445 176.525 9.60443C176.525 10.2758 176.374 10.874 176.073 11.399C175.78 11.9155 175.371 12.3243 174.846 12.6256C174.321 12.9182 173.727 13.0646 173.065 13.0646ZM173.065 12.2512C173.555 12.2512 173.99 12.1436 174.369 11.9284C174.747 11.7046 175.044 11.3947 175.259 10.9988C175.483 10.5943 175.595 10.1295 175.595 9.60443C175.595 9.07078 175.483 8.60598 175.259 8.21005C175.044 7.81411 174.747 7.50855 174.369 7.29337C173.99 7.06958 173.56 6.95769 173.078 6.95769C172.596 6.95769 172.165 7.06958 171.786 7.29337C171.408 7.50855 171.106 7.81411 170.883 8.21005C170.659 8.60598 170.547 9.07078 170.547 9.60443C170.547 10.1295 170.659 10.5943 170.883 10.9988C171.106 11.3947 171.408 11.7046 171.786 11.9284C172.165 12.1436 172.591 12.2512 173.065 12.2512ZM181.856 6.15721C182.407 6.15721 182.889 6.2648 183.302 6.47999C183.724 6.68656 184.051 7.00503 184.284 7.43539C184.525 7.86576 184.645 8.40802 184.645 9.06217V13H183.728V9.15255C183.728 8.43814 183.548 7.90019 183.186 7.53868C182.833 7.16857 182.334 6.98351 181.689 6.98351C181.206 6.98351 180.785 7.08249 180.423 7.28046C180.07 7.46982 179.795 7.74956 179.597 8.11967C179.408 8.48118 179.313 8.92015 179.313 9.43659V13H178.396V6.22177H179.274V8.08094L179.132 7.73234C179.347 7.24173 179.692 6.85871 180.165 6.58327C180.638 6.29923 181.202 6.15721 181.856 6.15721ZM190 13.0646C189.295 13.0646 188.675 12.9182 188.141 12.6256C187.607 12.3243 187.19 11.9155 186.889 11.399C186.588 10.874 186.437 10.2758 186.437 9.60443C186.437 8.93306 186.579 8.33916 186.863 7.82272C187.156 7.30628 187.552 6.90174 188.051 6.60909C188.559 6.30784 189.127 6.15721 189.755 6.15721C190.392 6.15721 190.956 6.30354 191.446 6.59618C191.946 6.88022 192.337 7.28477 192.621 7.80981C192.905 8.32625 193.047 8.92445 193.047 9.60443C193.047 9.64746 193.043 9.6948 193.034 9.74645C193.034 9.78948 193.034 9.83682 193.034 9.88847H187.134V9.20419H192.544L192.182 9.47532C192.182 8.9847 192.075 8.55004 191.859 8.17132C191.653 7.78399 191.369 7.48273 191.007 7.26755C190.646 7.05237 190.228 6.94478 189.755 6.94478C189.29 6.94478 188.873 7.05237 188.503 7.26755C188.133 7.48273 187.844 7.78399 187.638 8.17132C187.431 8.55864 187.328 9.00192 187.328 9.50114V9.64316C187.328 10.1596 187.44 10.6158 187.663 11.0117C187.896 11.399 188.214 11.7046 188.619 11.9284C189.032 12.1436 189.501 12.2512 190.026 12.2512C190.439 12.2512 190.822 12.178 191.175 12.0317C191.537 11.8854 191.847 11.6616 192.105 11.3603L192.621 11.9542C192.32 12.3157 191.941 12.5912 191.485 12.7805C191.037 12.9699 190.543 13.0646 190 13.0646Z" fill="#656D6F"/>
<path d="M112.472 30V20.9624H115.855C116.621 20.9624 117.279 21.0872 117.83 21.3368C118.381 21.5778 118.803 21.9307 119.095 22.3955C119.396 22.8517 119.547 23.4068 119.547 24.061C119.547 24.6979 119.396 25.2488 119.095 25.7136C118.803 26.1698 118.381 26.5227 117.83 26.7723C117.279 27.0133 116.621 27.1338 115.855 27.1338H113.001L113.427 26.6948V30H112.472ZM118.643 30L116.319 26.7206H117.352L119.689 30H118.643ZM113.427 26.7723L113.001 26.3204H115.829C116.732 26.3204 117.417 26.1224 117.882 25.7265C118.355 25.3306 118.592 24.7754 118.592 24.061C118.592 23.338 118.355 22.7785 117.882 22.3826C117.417 21.9866 116.732 21.7887 115.829 21.7887H113.001L113.427 21.3368V26.7723ZM124.487 30.0646C123.782 30.0646 123.162 29.9182 122.628 29.6256C122.095 29.3243 121.677 28.9155 121.376 28.399C121.075 27.874 120.924 27.2758 120.924 26.6044C120.924 25.9331 121.066 25.3392 121.35 24.8227C121.643 24.3063 122.039 23.9017 122.538 23.6091C123.046 23.3078 123.614 23.1572 124.242 23.1572C124.879 23.1572 125.443 23.3035 125.933 23.5962C126.433 23.8802 126.824 24.2848 127.108 24.8098C127.392 25.3262 127.534 25.9245 127.534 26.6044C127.534 26.6475 127.53 26.6948 127.522 26.7464C127.522 26.7895 127.522 26.8368 127.522 26.8885H121.621V26.2042H127.031L126.669 26.4753C126.669 25.9847 126.562 25.55 126.347 25.1713C126.14 24.784 125.856 24.4827 125.495 24.2676C125.133 24.0524 124.716 23.9448 124.242 23.9448C123.777 23.9448 123.36 24.0524 122.99 24.2676C122.62 24.4827 122.331 24.784 122.125 25.1713C121.918 25.5586 121.815 26.0019 121.815 26.5011V26.6432C121.815 27.1596 121.927 27.6158 122.151 28.0117C122.383 28.399 122.701 28.7046 123.106 28.9284C123.519 29.1436 123.988 29.2512 124.513 29.2512C124.926 29.2512 125.309 29.178 125.662 29.0317C126.024 28.8854 126.334 28.6616 126.592 28.3603L127.108 28.9542C126.807 29.3157 126.428 29.5912 125.972 29.7805C125.525 29.9699 125.03 30.0646 124.487 30.0646ZM132.899 30.0646C132.314 30.0646 131.784 29.9311 131.311 29.6643C130.838 29.3889 130.459 28.9973 130.175 28.4894C129.9 27.973 129.762 27.3447 129.762 26.6044C129.762 25.8642 129.9 25.2402 130.175 24.7323C130.45 24.2159 130.825 23.8243 131.298 23.5575C131.772 23.2906 132.305 23.1572 132.899 23.1572C133.545 23.1572 134.121 23.3035 134.629 23.5962C135.146 23.8802 135.55 24.2848 135.843 24.8098C136.135 25.3262 136.282 25.9245 136.282 26.6044C136.282 27.293 136.135 27.8955 135.843 28.412C135.55 28.9284 135.146 29.3329 134.629 29.6256C134.121 29.9182 133.545 30.0646 132.899 30.0646ZM129.4 32.5047V23.2218H130.278V25.2617L130.188 26.6173L130.317 27.9859V32.5047H129.4ZM132.835 29.2512C133.317 29.2512 133.747 29.1436 134.126 28.9284C134.504 28.7046 134.806 28.3947 135.029 27.9988C135.253 27.5943 135.365 27.1295 135.365 26.6044C135.365 26.0794 135.253 25.6189 135.029 25.223C134.806 24.827 134.504 24.5172 134.126 24.2934C133.747 24.0696 133.317 23.9577 132.835 23.9577C132.353 23.9577 131.918 24.0696 131.531 24.2934C131.152 24.5172 130.851 24.827 130.627 25.223C130.412 25.6189 130.304 26.0794 130.304 26.6044C130.304 27.1295 130.412 27.5943 130.627 27.9988C130.851 28.3947 131.152 28.7046 131.531 28.9284C131.918 29.1436 132.353 29.2512 132.835 29.2512ZM138.15 30V20.4201H139.067V30H138.15ZM145.865 30V28.5023L145.827 28.257V25.7523C145.827 25.1756 145.663 24.7323 145.336 24.4225C145.018 24.1126 144.54 23.9577 143.903 23.9577C143.464 23.9577 143.047 24.0309 142.651 24.1772C142.255 24.3235 141.919 24.5172 141.644 24.7582L141.23 24.0739C141.575 23.7812 141.988 23.5575 142.47 23.4025C142.952 23.239 143.46 23.1572 143.993 23.1572C144.871 23.1572 145.547 23.3767 146.02 23.8157C146.502 24.246 146.743 24.9045 146.743 25.791V30H145.865ZM143.529 30.0646C143.021 30.0646 142.577 29.9828 142.199 29.8192C141.829 29.6471 141.545 29.4147 141.347 29.1221C141.149 28.8208 141.05 28.4765 141.05 28.0892C141.05 27.7363 141.131 27.4178 141.295 27.1338C141.467 26.8411 141.743 26.6087 142.121 26.4366C142.509 26.2558 143.025 26.1655 143.671 26.1655H146.007V26.8497H143.696C143.042 26.8497 142.586 26.9659 142.328 27.1983C142.078 27.4307 141.953 27.7191 141.953 28.0634C141.953 28.4507 142.104 28.7606 142.405 28.9929C142.707 29.2253 143.128 29.3415 143.671 29.3415C144.187 29.3415 144.63 29.2253 145 28.9929C145.379 28.7519 145.655 28.4077 145.827 27.9601L146.033 28.5927C145.861 29.0403 145.56 29.3975 145.13 29.6643C144.708 29.9311 144.174 30.0646 143.529 30.0646ZM152.048 30.0646C151.376 30.0646 150.774 29.9182 150.24 29.6256C149.715 29.3243 149.302 28.9155 149.001 28.399C148.7 27.874 148.549 27.2758 148.549 26.6044C148.549 25.9245 148.7 25.3262 149.001 24.8098C149.302 24.2934 149.715 23.8888 150.24 23.5962C150.774 23.3035 151.376 23.1572 152.048 23.1572C152.624 23.1572 153.145 23.2691 153.61 23.4929C154.075 23.7167 154.441 24.0524 154.707 24.4999L154.023 24.9647C153.791 24.6204 153.502 24.3665 153.158 24.203C152.814 24.0395 152.439 23.9577 152.035 23.9577C151.553 23.9577 151.118 24.0696 150.731 24.2934C150.344 24.5086 150.038 24.8141 149.814 25.21C149.59 25.606 149.478 26.0708 149.478 26.6044C149.478 27.1381 149.59 27.6029 149.814 27.9988C150.038 28.3947 150.344 28.7046 150.731 28.9284C151.118 29.1436 151.553 29.2512 152.035 29.2512C152.439 29.2512 152.814 29.1694 153.158 29.0059C153.502 28.8423 153.791 28.5927 154.023 28.257L154.707 28.7218C154.441 29.1608 154.075 29.4965 153.61 29.7289C153.145 29.9527 152.624 30.0646 152.048 30.0646ZM159.274 30.0646C158.568 30.0646 157.948 29.9182 157.415 29.6256C156.881 29.3243 156.464 28.9155 156.162 28.399C155.861 27.874 155.71 27.2758 155.71 26.6044C155.71 25.9331 155.852 25.3392 156.136 24.8227C156.429 24.3063 156.825 23.9017 157.324 23.6091C157.832 23.3078 158.4 23.1572 159.029 23.1572C159.665 23.1572 160.229 23.3035 160.72 23.5962C161.219 23.8802 161.611 24.2848 161.895 24.8098C162.179 25.3262 162.321 25.9245 162.321 26.6044C162.321 26.6475 162.317 26.6948 162.308 26.7464C162.308 26.7895 162.308 26.8368 162.308 26.8885H156.408V26.2042H161.817L161.456 26.4753C161.456 25.9847 161.348 25.55 161.133 25.1713C160.926 24.784 160.642 24.4827 160.281 24.2676C159.919 24.0524 159.502 23.9448 159.029 23.9448C158.564 23.9448 158.146 24.0524 157.776 24.2676C157.406 24.4827 157.118 24.784 156.911 25.1713C156.705 25.5586 156.601 26.0019 156.601 26.5011V26.6432C156.601 27.1596 156.713 27.6158 156.937 28.0117C157.169 28.399 157.488 28.7046 157.892 28.9284C158.306 29.1436 158.775 29.2512 159.3 29.2512C159.713 29.2512 160.096 29.178 160.449 29.0317C160.81 28.8854 161.12 28.6616 161.378 28.3603L161.895 28.9542C161.593 29.3157 161.215 29.5912 160.759 29.7805C160.311 29.9699 159.816 30.0646 159.274 30.0646ZM172.656 23.1572C173.207 23.1572 173.685 23.2648 174.089 23.48C174.502 23.6866 174.821 24.005 175.045 24.4354C175.277 24.8658 175.393 25.408 175.393 26.0622V30H174.477V26.1525C174.477 25.4381 174.304 24.9002 173.96 24.5387C173.625 24.1686 173.147 23.9835 172.527 23.9835C172.062 23.9835 171.658 24.0825 171.313 24.2805C170.978 24.4698 170.715 24.7496 170.526 25.1197C170.345 25.4812 170.255 25.9201 170.255 26.4366V30H169.338V26.1525C169.338 25.4381 169.166 24.9002 168.822 24.5387C168.477 24.1686 167.995 23.9835 167.376 23.9835C166.919 23.9835 166.519 24.0825 166.175 24.2805C165.831 24.4698 165.564 24.7496 165.374 25.1197C165.194 25.4812 165.103 25.9201 165.103 26.4366V30H164.187V23.2218H165.065V25.0551L164.923 24.7323C165.129 24.2417 165.461 23.8587 165.917 23.5833C166.381 23.2992 166.928 23.1572 167.556 23.1572C168.219 23.1572 168.783 23.3251 169.248 23.6607C169.713 23.9878 170.014 24.4827 170.151 25.1455L169.79 25.0035C169.988 24.4526 170.337 24.0093 170.836 23.6736C171.344 23.3294 171.95 23.1572 172.656 23.1572ZM180.758 30.0646C180.053 30.0646 179.433 29.9182 178.899 29.6256C178.366 29.3243 177.948 28.9155 177.647 28.399C177.346 27.874 177.195 27.2758 177.195 26.6044C177.195 25.9331 177.337 25.3392 177.621 24.8227C177.914 24.3063 178.31 23.9017 178.809 23.6091C179.317 23.3078 179.885 23.1572 180.513 23.1572C181.15 23.1572 181.714 23.3035 182.204 23.5962C182.704 23.8802 183.095 24.2848 183.379 24.8098C183.663 25.3262 183.805 25.9245 183.805 26.6044C183.805 26.6475 183.801 26.6948 183.792 26.7464C183.792 26.7895 183.792 26.8368 183.792 26.8885H177.892V26.2042H183.302L182.94 26.4753C182.94 25.9847 182.833 25.55 182.618 25.1713C182.411 24.784 182.127 24.4827 181.765 24.2676C181.404 24.0524 180.986 23.9448 180.513 23.9448C180.048 23.9448 179.631 24.0524 179.261 24.2676C178.891 24.4827 178.602 24.784 178.396 25.1713C178.189 25.5586 178.086 26.0019 178.086 26.5011V26.6432C178.086 27.1596 178.198 27.6158 178.422 28.0117C178.654 28.399 178.972 28.7046 179.377 28.9284C179.79 29.1436 180.259 29.2512 180.784 29.2512C181.197 29.2512 181.58 29.178 181.933 29.0317C182.295 28.8854 182.605 28.6616 182.863 28.3603L183.379 28.9542C183.078 29.3157 182.699 29.5912 182.243 29.7805C181.796 29.9699 181.301 30.0646 180.758 30.0646ZM189.131 23.1572C189.682 23.1572 190.164 23.2648 190.577 23.48C190.999 23.6866 191.326 24.005 191.559 24.4354C191.8 24.8658 191.92 25.408 191.92 26.0622V30H191.003V26.1525C191.003 25.4381 190.823 24.9002 190.461 24.5387C190.108 24.1686 189.609 23.9835 188.964 23.9835C188.481 23.9835 188.06 24.0825 187.698 24.2805C187.345 24.4698 187.07 24.7496 186.872 25.1197C186.683 25.4812 186.588 25.9201 186.588 26.4366V30H185.671V23.2218H186.549V25.0809L186.407 24.7323C186.622 24.2417 186.967 23.8587 187.44 23.5833C187.913 23.2992 188.477 23.1572 189.131 23.1572ZM196.539 30.0646C195.902 30.0646 195.412 29.8924 195.068 29.5481C194.723 29.2038 194.551 28.7175 194.551 28.0892V21.7241H195.468V28.0375C195.468 28.4335 195.567 28.739 195.765 28.9542C195.971 29.1694 196.264 29.277 196.643 29.277C197.047 29.277 197.383 29.1608 197.65 28.9284L197.972 29.5869C197.792 29.7504 197.572 29.8709 197.314 29.9484C197.064 30.0258 196.806 30.0646 196.539 30.0646ZM193.337 23.9835V23.2218H197.534V23.9835H193.337Z" fill="#656D6F"/>
<path d="M114.228 47V38.7887H111.052V37.9624H118.359V38.7887H115.183V47H114.228ZM123.152 40.1572C123.703 40.1572 124.185 40.2648 124.598 40.48C125.02 40.6866 125.347 41.005 125.579 41.4354C125.82 41.8658 125.941 42.408 125.941 43.0622V47H125.024V43.1525C125.024 42.4381 124.843 41.9002 124.482 41.5387C124.129 41.1686 123.63 40.9835 122.984 40.9835C122.502 40.9835 122.08 41.0825 121.719 41.2805C121.366 41.4698 121.091 41.7496 120.893 42.1197C120.703 42.4812 120.609 42.9201 120.609 43.4366V47H119.692V37.4201H120.609V42.0809L120.428 41.7323C120.643 41.2417 120.987 40.8587 121.461 40.5833C121.934 40.2992 122.498 40.1572 123.152 40.1572ZM131.296 47.0646C130.59 47.0646 129.97 46.9182 129.437 46.6256C128.903 46.3243 128.486 45.9155 128.184 45.399C127.883 44.874 127.733 44.2758 127.733 43.6044C127.733 42.9331 127.875 42.3392 128.159 41.8227C128.451 41.3063 128.847 40.9017 129.346 40.6091C129.854 40.3078 130.422 40.1572 131.051 40.1572C131.688 40.1572 132.251 40.3035 132.742 40.5962C133.241 40.8802 133.633 41.2848 133.917 41.8098C134.201 42.3262 134.343 42.9245 134.343 43.6044C134.343 43.6475 134.339 43.6948 134.33 43.7464C134.33 43.7895 134.33 43.8368 134.33 43.8885H128.43V43.2042H133.839L133.478 43.4753C133.478 42.9847 133.37 42.55 133.155 42.1713C132.949 41.784 132.665 41.4827 132.303 41.2676C131.942 41.0524 131.524 40.9448 131.051 40.9448C130.586 40.9448 130.168 41.0524 129.798 41.2676C129.428 41.4827 129.14 41.784 128.933 42.1713C128.727 42.5586 128.623 43.0019 128.623 43.5011V43.6432C128.623 44.1596 128.735 44.6158 128.959 45.0117C129.191 45.399 129.51 45.7046 129.914 45.9284C130.328 46.1436 130.797 46.2512 131.322 46.2512C131.735 46.2512 132.118 46.178 132.471 46.0317C132.832 45.8854 133.142 45.6616 133.4 45.3603L133.917 45.9542C133.616 46.3157 133.237 46.5912 132.781 46.7805C132.333 46.9699 131.838 47.0646 131.296 47.0646ZM136.209 47V40.2218H137.087V42.068L136.996 41.7453C137.186 41.2288 137.504 40.8372 137.952 40.5704C138.399 40.2949 138.954 40.1572 139.617 40.1572V41.0481C139.583 41.0481 139.548 41.0481 139.514 41.0481C139.48 41.0395 139.445 41.0352 139.411 41.0352C138.696 41.0352 138.137 41.2546 137.732 41.6936C137.328 42.124 137.125 42.7394 137.125 43.5399V47H136.209ZM145.033 47V45.5023L144.995 45.257V42.7523C144.995 42.1756 144.831 41.7323 144.504 41.4225C144.185 41.1126 143.708 40.9577 143.071 40.9577C142.632 40.9577 142.214 41.0309 141.818 41.1772C141.423 41.3235 141.087 41.5172 140.811 41.7582L140.398 41.0739C140.743 40.7812 141.156 40.5575 141.638 40.4025C142.12 40.239 142.628 40.1572 143.161 40.1572C144.039 40.1572 144.715 40.3767 145.188 40.8157C145.67 41.246 145.911 41.9045 145.911 42.791V47H145.033ZM142.696 47.0646C142.189 47.0646 141.745 46.9828 141.367 46.8192C140.996 46.6471 140.712 46.4147 140.514 46.1221C140.316 45.8208 140.218 45.4765 140.218 45.0892C140.218 44.7363 140.299 44.4178 140.463 44.1338C140.635 43.8411 140.91 43.6087 141.289 43.4366C141.676 43.2558 142.193 43.1655 142.838 43.1655H145.175V43.8497H142.864C142.21 43.8497 141.754 43.9659 141.496 44.1983C141.246 44.4307 141.121 44.7191 141.121 45.0634C141.121 45.4507 141.272 45.7606 141.573 45.9929C141.874 46.2253 142.296 46.3415 142.838 46.3415C143.355 46.3415 143.798 46.2253 144.168 45.9929C144.547 45.7519 144.822 45.4077 144.995 44.9601L145.201 45.5927C145.029 46.0403 144.728 46.3975 144.297 46.6643C143.876 46.9311 143.342 47.0646 142.696 47.0646ZM151.9 47.0646C151.315 47.0646 150.785 46.9311 150.312 46.6643C149.838 46.3889 149.46 45.9973 149.176 45.4894C148.9 44.973 148.763 44.3447 148.763 43.6044C148.763 42.8642 148.9 42.2402 149.176 41.7323C149.451 41.2159 149.826 40.8243 150.299 40.5575C150.772 40.2906 151.306 40.1572 151.9 40.1572C152.545 40.1572 153.122 40.3035 153.63 40.5962C154.146 40.8802 154.551 41.2848 154.844 41.8098C155.136 42.3262 155.283 42.9245 155.283 43.6044C155.283 44.293 155.136 44.8955 154.844 45.412C154.551 45.9284 154.146 46.3329 153.63 46.6256C153.122 46.9182 152.545 47.0646 151.9 47.0646ZM148.401 49.5047V40.2218H149.279V42.2617L149.189 43.6173L149.318 44.9859V49.5047H148.401ZM151.835 46.2512C152.317 46.2512 152.748 46.1436 153.126 45.9284C153.505 45.7046 153.806 45.3947 154.03 44.9988C154.254 44.5943 154.366 44.1295 154.366 43.6044C154.366 43.0794 154.254 42.6189 154.03 42.223C153.806 41.827 153.505 41.5172 153.126 41.2934C152.748 41.0696 152.317 40.9577 151.835 40.9577C151.353 40.9577 150.919 41.0696 150.531 41.2934C150.153 41.5172 149.851 41.827 149.628 42.223C149.412 42.6189 149.305 43.0794 149.305 43.6044C149.305 44.1295 149.412 44.5943 149.628 44.9988C149.851 45.3947 150.153 45.7046 150.531 45.9284C150.919 46.1436 151.353 46.2512 151.835 46.2512ZM157.014 49.5693C156.695 49.5693 156.39 49.5176 156.097 49.4143C155.813 49.3111 155.568 49.1561 155.361 48.9495L155.787 48.2653C155.959 48.4288 156.144 48.5536 156.342 48.6397C156.549 48.7344 156.777 48.7817 157.027 48.7817C157.328 48.7817 157.586 48.6956 157.801 48.5235C158.025 48.36 158.236 48.0673 158.434 47.6455L158.873 46.6514L158.976 46.5094L161.765 40.2218H162.669L159.273 47.8134C159.084 48.2524 158.873 48.601 158.64 48.8592C158.417 49.1174 158.171 49.2981 157.905 49.4014C157.638 49.5133 157.341 49.5693 157.014 49.5693ZM158.821 47.1937L155.697 40.2218H156.652L159.415 46.4448L158.821 47.1937ZM171.457 47.0775C170.777 47.0775 170.149 46.9656 169.572 46.7418C168.996 46.5094 168.496 46.1866 168.075 45.7735C167.653 45.3603 167.322 44.874 167.08 44.3145C166.848 43.7551 166.732 43.1439 166.732 42.4812C166.732 41.8184 166.848 41.2073 167.08 40.6478C167.322 40.0884 167.653 39.602 168.075 39.1889C168.505 38.7757 169.009 38.4573 169.585 38.2335C170.162 38.0011 170.79 37.8849 171.47 37.8849C172.124 37.8849 172.74 37.9968 173.316 38.2206C173.893 38.4358 174.379 38.7628 174.775 39.2018L174.169 39.8086C173.798 39.4299 173.39 39.1588 172.942 38.9952C172.494 38.8231 172.012 38.737 171.496 38.737C170.954 38.737 170.45 38.8317 169.985 39.0211C169.521 39.2018 169.116 39.4643 168.772 39.8086C168.428 40.1443 168.156 40.5402 167.958 40.9964C167.769 41.444 167.674 41.9389 167.674 42.4812C167.674 43.0234 167.769 43.5227 167.958 43.9788C168.156 44.4264 168.428 44.8224 168.772 45.1666C169.116 45.5023 169.521 45.7649 169.985 45.9542C170.45 46.135 170.954 46.2253 171.496 46.2253C172.012 46.2253 172.494 46.1393 172.942 45.9671C173.39 45.795 173.798 45.5195 174.169 45.1408L174.775 45.7476C174.379 46.1866 173.893 46.518 173.316 46.7418C172.74 46.9656 172.12 47.0775 171.457 47.0775ZM176.618 47V37.4201H177.535V47H176.618ZM180.086 47V40.2218H181.002V47H180.086ZM180.551 38.7241C180.361 38.7241 180.202 38.6595 180.073 38.5304C179.944 38.4013 179.879 38.2464 179.879 38.0656C179.879 37.8849 179.944 37.7343 180.073 37.6138C180.202 37.4847 180.361 37.4201 180.551 37.4201C180.74 37.4201 180.899 37.4803 181.028 37.6008C181.157 37.7214 181.222 37.872 181.222 38.0527C181.222 38.2421 181.157 38.4013 181.028 38.5304C180.908 38.6595 180.748 38.7241 180.551 38.7241ZM187.013 40.1572C187.564 40.1572 188.046 40.2648 188.459 40.48C188.881 40.6866 189.208 41.005 189.44 41.4354C189.681 41.8658 189.802 42.408 189.802 43.0622V47H188.885V43.1525C188.885 42.4381 188.704 41.9002 188.343 41.5387C187.99 41.1686 187.491 40.9835 186.845 40.9835C186.363 40.9835 185.942 41.0825 185.58 41.2805C185.227 41.4698 184.952 41.7496 184.754 42.1197C184.564 42.4812 184.47 42.9201 184.47 43.4366V47H183.553V40.2218H184.431V42.0809L184.289 41.7323C184.504 41.2417 184.848 40.8587 185.322 40.5833C185.795 40.2992 186.359 40.1572 187.013 40.1572ZM192.278 47V40.2218H193.195V47H192.278ZM192.743 38.7241C192.553 38.7241 192.394 38.6595 192.265 38.5304C192.136 38.4013 192.071 38.2464 192.071 38.0656C192.071 37.8849 192.136 37.7343 192.265 37.6138C192.394 37.4847 192.553 37.4201 192.743 37.4201C192.932 37.4201 193.091 37.4803 193.22 37.6008C193.35 37.7214 193.414 37.872 193.414 38.0527C193.414 38.2421 193.35 38.4013 193.22 38.5304C193.1 38.6595 192.941 38.7241 192.743 38.7241ZM198.56 47.0646C197.888 47.0646 197.286 46.9182 196.752 46.6256C196.227 46.3243 195.814 45.9155 195.513 45.399C195.212 44.874 195.061 44.2758 195.061 43.6044C195.061 42.9245 195.212 42.3262 195.513 41.8098C195.814 41.2934 196.227 40.8888 196.752 40.5962C197.286 40.3035 197.888 40.1572 198.56 40.1572C199.137 40.1572 199.657 40.2691 200.122 40.4929C200.587 40.7167 200.953 41.0524 201.219 41.4999L200.535 41.9647C200.303 41.6204 200.014 41.3665 199.67 41.203C199.326 41.0395 198.951 40.9577 198.547 40.9577C198.065 40.9577 197.63 41.0696 197.243 41.2934C196.856 41.5086 196.55 41.8141 196.326 42.21C196.102 42.606 195.991 43.0708 195.991 43.6044C195.991 44.1381 196.102 44.6029 196.326 44.9988C196.55 45.3947 196.856 45.7046 197.243 45.9284C197.63 46.1436 198.065 46.2512 198.547 46.2512C198.951 46.2512 199.326 46.1694 199.67 46.0059C200.014 45.8423 200.303 45.5927 200.535 45.257L201.219 45.7218C200.953 46.1608 200.587 46.4965 200.122 46.7289C199.657 46.9527 199.137 47.0646 198.56 47.0646Z" fill="#656D6F"/>
<path d="M104.5 3V50" stroke="#C3C7C9"/>
</svg>
