<svg width="16" height="16" viewBox="0 0 16 16" fill="none" xmlns="http://www.w3.org/2000/svg">
<g clip-path="url(#clip0_13_213)">
<path d="M11.5867 7.19333L10.12 5.72667C9.93333 5.54 9.88 5.28 9.95333 5.04667C10.2 4.3 10.3333 3.5 10.3333 2.66667C10.3333 2.3 10.6333 2 11 2H13.3333C13.7 2 14 2.3 14 2.66667C14 8.92667 8.92667 14 2.66667 14C2.3 14 2 13.7 2 13.3333V11.0067C2 10.64 2.3 10.34 2.66667 10.34C3.49333 10.34 4.3 10.2067 5.04667 9.96C5.28 9.88 5.54667 9.94 5.72667 10.12L7.19333 11.5867C9.08 10.62 10.6267 9.08 11.5867 7.19333Z" fill="#52CCEB"/>
</g>
<defs>
<clipPath id="clip0_13_213">
<rect width="16" height="16" fill="white"/>
</clipPath>
</defs>
</svg>
