<svg width="100" height="100" viewBox="0 0 100 100" fill="none" xmlns="http://www.w3.org/2000/svg">
<g clip-path="url(#clip0_24_313)">
<path d="M18.6201 62.7932C22.2069 62.7932 25.1145 59.8815 25.1145 56.2898C24.796 47.6724 12.4429 47.6748 12.1256 56.2898C12.1256 59.8817 15.0333 62.7932 18.6201 62.7932ZM84.3096 7.99844V2.9997C84.3096 1.3798 82.9982 0.0666504 81.3806 0.0666504C79.763 0.0666504 78.4517 1.3798 78.4517 2.9997V7.99844C80.317 7.52903 82.4444 7.52903 84.3096 7.99844ZM52.929 68.3051C51.0636 68.7745 48.9364 68.7745 47.0711 68.3049L47.0709 72.7483L34.3097 80.1264L21.5486 72.7485L21.5488 68.3051C19.6835 68.7745 17.5561 68.7745 15.6909 68.3051L15.6907 72.7485L1.46501 80.973C0.0639951 81.783 -0.415962 83.5767 0.393014 84.9796C1.20648 86.3953 3.01735 86.8557 4.39396 86.0532L18.6197 77.8285L32.845 86.0528C33.3898 86.2525 33.998 86.852 35.7745 86.0532L50.0715 77.7873L53.4263 79.5406C53.6659 77.5572 54.385 75.6619 55.5213 74.0187L52.9288 72.664L52.929 68.3051ZM81.3806 26.517C84.9674 26.517 87.8751 23.6054 87.8751 20.0136C87.5566 11.3962 75.2035 11.3986 74.8862 20.0136C74.8862 23.6052 77.7938 26.517 81.3806 26.517ZM65.685 74.5334C62.0982 74.5334 59.1905 77.4452 59.1905 81.0369C59.509 89.6542 71.8621 89.6519 72.1794 81.0369C72.1794 77.445 69.2718 74.5334 65.685 74.5334Z" fill="#52CCEB"/>
<path d="M98.5379 26.5464L93.2373 23.4751C92.6807 25.3783 91.6748 27.1199 90.3044 28.5531L94.1421 30.7768V45.5346L81.3809 52.9126L68.6196 45.5346V30.7776L72.4612 28.557C71.0902 27.1245 70.0835 25.3835 69.526 23.4806L65.6905 25.6976L51.4648 17.4735C50.6576 17.0218 49.5229 16.8912 48.536 17.4735L33.0054 26.4517C32.0322 26.9285 31.3601 27.9269 31.3601 29.085V45.5471L27.5464 47.753C28.9164 49.1864 29.9217 50.9281 30.4779 52.8314L34.3107 50.6143L38.1439 52.8296C38.7003 50.9264 39.706 49.1847 41.0762 47.7514L37.2393 45.534V30.7776L50.0003 23.4005L62.7615 30.7779V45.5348L58.9266 47.753C60.2965 49.1864 61.3019 50.9281 61.8581 52.8314L65.6909 50.6145L78.4521 57.9926V72.7424L75.9867 74.2215C77.1058 75.9092 77.7908 77.8473 77.9807 79.8634L82.5001 77.1522C83.5623 76.7119 84.31 75.6647 84.31 74.4419V57.9924L98.5357 49.7677C98.9812 49.51 99.351 49.1396 99.608 48.6938C99.8651 48.2479 100 47.7423 100 47.2277V29.085C100 28.5708 99.8652 28.0657 99.6085 27.6202C99.3519 27.1746 98.9827 26.8043 98.5379 26.5464ZM62.7615 93.0533V97.0005C62.7615 98.6204 64.0729 99.9336 65.6905 99.9336C67.308 99.9336 68.6194 98.6204 68.6194 97.0005V93.0507C66.7545 93.5209 64.6271 93.5219 62.7615 93.0533Z" fill="#52CCEB"/>
<path d="M50.0004 49.7866C46.4136 49.7866 43.506 52.6984 43.506 56.2901C43.8245 64.9074 56.1776 64.9051 56.4949 56.2901C56.4947 52.6982 53.587 49.7866 50.0004 49.7866Z" fill="#52CCEB"/>
</g>
<defs>
<clipPath id="clip0_24_313">
<rect width="100" height="100" fill="white"/>
</clipPath>
</defs>
</svg>
