<svg width="49" height="51" viewBox="0 0 49 51" fill="none" xmlns="http://www.w3.org/2000/svg">
<path d="M18.335 50.0236C19.54 50.0236 20.4927 49.4911 21.1653 48.4543L47.6459 6.75765C48.1505 5.94502 48.3466 5.32855 48.3466 4.68404C48.3466 3.14281 47.3377 2.13403 45.7966 2.13403C44.6756 2.13403 44.0591 2.49832 43.3867 3.56316L18.2229 43.6625L5.16469 26.5692C4.46414 25.5883 3.76361 25.1962 2.75481 25.1962C1.15755 25.1962 0.0646973 26.289 0.0646973 27.8301C0.0646973 28.4748 0.344918 29.2034 0.877335 29.8758L15.4208 48.3983C16.2614 49.4911 17.1301 50.0236 18.335 50.0236Z" fill="#52CCEB"/>
</svg>
