<svg width="14" height="16" viewBox="0 0 14 16" fill="none" xmlns="http://www.w3.org/2000/svg">
<path d="M1.96639 13.1429C1.42017 13.1429 0.955882 12.9517 0.573529 12.5693C0.191176 12.187 0 11.7227 0 11.1765V6.58824C0 6.04202 0.191176 5.57773 0.573529 5.19538C0.955882 4.81303 1.42017 4.62185 1.96639 4.62185C2.26134 4.62185 2.53172 4.68193 2.77752 4.8021C3.02332 4.92227 3.23908 5.08067 3.42479 5.27731H3.93277V2H10.4874V5.27731H11.1429C11.6891 5.27731 12.1534 5.46849 12.5357 5.85084C12.9181 6.23319 13.1092 6.69748 13.1092 7.2437V12.4874H3.42479C3.23908 12.684 3.02332 12.8424 2.77752 12.9626C2.53172 13.0828 2.26134 13.1429 1.96639 13.1429ZM1.96639 11.8319C2.1521 11.8319 2.30777 11.7691 2.4334 11.6435C2.55903 11.5179 2.62185 11.3622 2.62185 11.1765V6.58824C2.62185 6.40252 2.55903 6.24685 2.4334 6.12122C2.30777 5.99559 2.1521 5.93277 1.96639 5.93277C1.78067 5.93277 1.625 5.99559 1.49937 6.12122C1.37374 6.24685 1.31092 6.40252 1.31092 6.58824V11.1765C1.31092 11.3622 1.37374 11.5179 1.49937 11.6435C1.625 11.7691 1.78067 11.8319 1.96639 11.8319ZM5.2437 5.27731H9.17647V3.31092H5.2437V5.27731ZM3.93277 11.1765H11.7983V7.2437C11.7983 7.05798 11.7355 6.90231 11.6099 6.77668C11.4842 6.65105 11.3286 6.58824 11.1429 6.58824H3.93277V11.1765ZM8.52101 8.55462C8.70672 8.55462 8.8624 8.49181 8.98803 8.36618C9.11366 8.24055 9.17647 8.08487 9.17647 7.89916C9.17647 7.71345 9.11366 7.55777 8.98803 7.43214C8.8624 7.30651 8.70672 7.2437 8.52101 7.2437C8.33529 7.2437 8.17962 7.30651 8.05399 7.43214C7.92836 7.55777 7.86555 7.71345 7.86555 7.89916C7.86555 8.08487 7.92836 8.24055 8.05399 8.36618C8.17962 8.49181 8.33529 8.55462 8.52101 8.55462ZM10.4874 8.55462C10.6731 8.55462 10.8288 8.49181 10.9544 8.36618C11.08 8.24055 11.1429 8.08487 11.1429 7.89916C11.1429 7.71345 11.08 7.55777 10.9544 7.43214C10.8288 7.30651 10.6731 7.2437 10.4874 7.2437C10.3017 7.2437 10.146 7.30651 10.0204 7.43214C9.89475 7.55777 9.83193 7.71345 9.83193 7.89916C9.83193 8.08487 9.89475 8.24055 10.0204 8.36618C10.146 8.49181 10.3017 8.55462 10.4874 8.55462ZM8.52101 10.521C8.70672 10.521 8.8624 10.4582 8.98803 10.3326C9.11366 10.2069 9.17647 10.0513 9.17647 9.86555C9.17647 9.67983 9.11366 9.52416 8.98803 9.39853C8.8624 9.2729 8.70672 9.21008 8.52101 9.21008C8.33529 9.21008 8.17962 9.2729 8.05399 9.39853C7.92836 9.52416 7.86555 9.67983 7.86555 9.86555C7.86555 10.0513 7.92836 10.2069 8.05399 10.3326C8.17962 10.4582 8.33529 10.521 8.52101 10.521ZM10.4874 10.521C10.6731 10.521 10.8288 10.4582 10.9544 10.3326C11.08 10.2069 11.1429 10.0513 11.1429 9.86555C11.1429 9.67983 11.08 9.52416 10.9544 9.39853C10.8288 9.2729 10.6731 9.21008 10.4874 9.21008C10.3017 9.21008 10.146 9.2729 10.0204 9.39853C9.89475 9.52416 9.83193 9.67983 9.83193 9.86555C9.83193 10.0513 9.89475 10.2069 10.0204 10.3326C10.146 10.4582 10.3017 10.521 10.4874 10.521ZM4.58824 10.521H7.21008V7.2437H4.58824V10.521Z" fill="#52CCEB"/>
</svg>
