<svg width="100" height="100" viewBox="0 0 100 100" fill="none" xmlns="http://www.w3.org/2000/svg">
<path d="M27.1665 56.3332C19.1665 56.3332 12.4998 49.8332 12.4998 41.6665C12.4998 33.4998 18.9998 26.9998 27.1665 26.9998C35.3332 26.9998 41.6665 33.6665 41.6665 41.6665C41.6665 49.6665 35.1665 56.3332 27.1665 56.3332ZM27.1665 31.3332C21.4998 31.3332 16.8332 35.9998 16.8332 41.6665C16.8332 47.3332 21.4998 51.9998 27.1665 51.9998C32.8332 51.9998 37.4998 47.3332 37.4998 41.6665C37.4998 35.9998 32.8332 31.3332 27.1665 31.3332ZM49.9998 95.8332H4.1665V69.8332C4.1665 64.6665 8.33317 60.4998 13.4998 60.4998H40.6665C45.8332 60.4998 49.9998 64.6665 49.9998 69.8332V95.8332ZM8.33317 91.6665H45.8332V69.8332C45.8332 66.9998 43.4998 64.6665 40.6665 64.6665H13.4998C10.6665 64.6665 8.33317 66.9998 8.33317 69.8332V91.6665Z" fill="#52CCEB"/>
<path d="M60.3332 69.8332V54.1665H45.8332V49.9998H64.6665V61.8332L81.8332 49.9998H89.6665C90.8332 49.9998 91.6665 48.9998 91.6665 47.9998V10.4998C91.6665 9.33317 90.6665 8.33317 89.6665 8.33317H27.1665C25.9998 8.33317 24.9998 9.33317 24.9998 10.4998V20.9998H20.8332V10.4998C20.8332 6.99984 23.6665 4.1665 27.1665 4.1665H89.6665C93.1665 4.1665 95.9998 6.99984 95.9998 10.4998V47.9998C95.9998 51.4998 93.1665 54.3332 89.6665 54.3332H83.1665L60.3332 69.8332Z" fill="#52CCEB"/>
<path fill-rule="evenodd" clip-rule="evenodd" d="M50.4998 96.3332H3.6665V69.8332C3.6665 64.3904 8.05703 59.9998 13.4998 59.9998H40.6665C46.1093 59.9998 50.4998 64.3904 50.4998 69.8332V96.3332ZM59.8332 70.7769V54.6665H45.3332V49.4998H65.1665V60.8812L81.6775 49.4998H89.6665C90.5305 49.4998 91.1665 48.751 91.1665 47.9998V10.4998C91.1665 10.0598 90.9767 9.63764 90.6785 9.32288C90.3773 9.00495 90.0019 8.83317 89.6665 8.83317H27.1665C26.276 8.83317 25.4998 9.60931 25.4998 10.4998V21.4998H20.3332V10.4998C20.3332 6.7237 23.3904 3.6665 27.1665 3.6665H89.6665C93.4426 3.6665 96.4998 6.7237 96.4998 10.4998V47.9998C96.4998 51.776 93.4426 54.8332 89.6665 54.8332H83.3202L59.8332 70.7769ZM83.1665 54.3332H89.6665C93.1665 54.3332 95.9998 51.4998 95.9998 47.9998V10.4998C95.9998 6.99984 93.1665 4.1665 89.6665 4.1665H27.1665C23.6665 4.1665 20.8332 6.99984 20.8332 10.4998V20.9998H24.9998V10.4998C24.9998 9.33317 25.9998 8.33317 27.1665 8.33317H89.6665C90.6665 8.33317 91.6665 9.33317 91.6665 10.4998V47.9998C91.6665 48.9998 90.8332 49.9998 89.6665 49.9998H81.8332L64.6665 61.8332V49.9998H45.8332V54.1665H60.3332V69.8332L83.1665 54.3332ZM27.1665 56.8332C18.8941 56.8332 11.9998 50.113 11.9998 41.6665C11.9998 33.2237 18.7237 26.4998 27.1665 26.4998C35.6204 26.4998 42.1665 33.4016 42.1665 41.6665C42.1665 49.9352 35.45 56.8332 27.1665 56.8332ZM27.1665 31.8332C21.776 31.8332 17.3332 36.276 17.3332 41.6665C17.3332 47.057 21.776 51.4998 27.1665 51.4998C32.557 51.4998 36.9998 47.057 36.9998 41.6665C36.9998 36.276 32.557 31.8332 27.1665 31.8332ZM45.8332 69.8332C45.8332 66.9998 43.4998 64.6665 40.6665 64.6665H13.4998C10.6665 64.6665 8.33317 66.9998 8.33317 69.8332V91.6665H45.8332V69.8332ZM45.3332 91.1665H8.83317V69.8332C8.83317 67.276 10.9426 65.1665 13.4998 65.1665H40.6665C43.2237 65.1665 45.3332 67.276 45.3332 69.8332V91.1665ZM12.4998 41.6665C12.4998 49.8332 19.1665 56.3332 27.1665 56.3332C35.1665 56.3332 41.6665 49.6665 41.6665 41.6665C41.6665 33.6665 35.3332 26.9998 27.1665 26.9998C18.9998 26.9998 12.4998 33.4998 12.4998 41.6665ZM16.8332 41.6665C16.8332 35.9998 21.4998 31.3332 27.1665 31.3332C32.8332 31.3332 37.4998 35.9998 37.4998 41.6665C37.4998 47.3332 32.8332 51.9998 27.1665 51.9998C21.4998 51.9998 16.8332 47.3332 16.8332 41.6665ZM49.9998 95.8332V69.8332C49.9998 64.6665 45.8332 60.4998 40.6665 60.4998H13.4998C8.33317 60.4998 4.1665 64.6665 4.1665 69.8332V95.8332H49.9998Z" fill="#52CCEB"/>
</svg>
