<svg width="100" height="100" viewBox="0 0 100 100" fill="none" xmlns="http://www.w3.org/2000/svg">
<path d="M42.1268 93.0001H7V13.9919H16.1618M84.1801 13.9919H93V93.0001H57.8585M30.9592 13.9919H69.1014" stroke="#52CCEB" stroke-width="4" stroke-miterlimit="10" stroke-linecap="round" stroke-linejoin="round"/>
<path d="M23.4309 17.4878V10.4959M23.4309 17.4878C23.4309 19.4186 21.8658 20.9837 19.935 20.9837C18.0042 20.9837 16.439 19.4186 16.439 17.4878V10.4959C16.439 8.56513 18.0042 7 19.935 7C21.8658 7 23.4309 8.56513 23.4309 10.4959M23.4309 17.4878C23.4309 19.4186 24.996 20.9837 26.9268 20.9837C28.8576 20.9837 30.4228 19.4186 30.4228 17.4878V10.4959C30.4228 8.56513 28.8576 7 26.9268 7C24.996 7 23.4309 8.56513 23.4309 10.4959M76.6128 17.4878V10.4959M76.6128 17.4878C76.6128 19.4186 78.1779 20.9837 80.1087 20.9837C82.0395 20.9837 83.6047 19.4186 83.6047 17.4878V10.4959C83.6047 8.56513 82.0395 7 80.1087 7C78.1779 7 76.6128 8.56513 76.6128 10.4959M76.6128 17.4878C76.6128 19.4186 75.0477 20.9837 73.1169 20.9837C71.1861 20.9837 69.6209 19.4186 69.6209 17.4878V10.4959C69.6209 8.56513 71.1861 7 73.1169 7C75.0477 7 76.6128 8.56513 76.6128 10.4959M7 34.9843H93M15.0407 75.1707H23.4309V83.561H15.0407V75.1707ZM30.4228 75.1707H38.813V83.561H30.4228V75.1707ZM45.8049 75.1707H54.1951V83.561H45.8049V75.1707ZM61.187 75.1707H69.5772V83.561H61.187V75.1707ZM76.5691 75.1707H84.9593V83.561H76.5691V75.1707ZM15.0407 59.7886H23.4309V68.1789H15.0407V59.7886ZM30.4228 59.7886H38.813V68.1789H30.4228V59.7886ZM45.8049 59.7886H54.1951V68.1789H45.8049V59.7886ZM61.187 59.7886H69.5772V68.1789H61.187V59.7886ZM76.5691 59.7886H84.9593V68.1789H76.5691V59.7886ZM15.0407 44.4065H23.4309V52.7967H15.0407V44.4065ZM30.4228 44.4065H38.813V52.7967H30.4228V44.4065ZM45.8049 44.4065H54.1951V52.7967H45.8049V44.4065ZM61.187 44.4065H69.5772V52.7967H61.187V44.4065ZM76.5691 44.4065H84.9593V52.7967H76.5691V44.4065ZM38.0273 20.9921H61.9582V27.984H38.0273V20.9921Z" stroke="#52CCEB" stroke-width="4" stroke-miterlimit="10" stroke-linecap="round" stroke-linejoin="round"/>
</svg>
